<svg xmlns="http://www.w3.org/2000/svg" id="prefix__illustration" width="255.997" height="210.926" viewBox="0 0 255.997 210.926">
    <defs>
        <linearGradient id="prefix__linear-gradient" x1=".5" x2=".5" y2="1" gradientUnits="objectBoundingBox">
            <stop offset="0" stop-color="#00ffb1"/>
            <stop offset="1" stop-color="#36475f"/>
        </linearGradient>
        <style>
            .prefix__cls-2{fill:#150035}.prefix__cls-5{fill:#2ec68b}.prefix__cls-6{fill:#39a1ff}.prefix__cls-7{fill:#fff}
        </style>
    </defs>
    <g id="prefix__XMLID_65_" transform="translate(86.987 49.657)">
        <path id="prefix__XMLID_454_" fill="url(#prefix__linear-gradient)" d="M372.012 212.429l-.319-.638 1.914-1.037.319.638zm3.908-2.153l-.319-.638 1.914-1.037.319.638zm3.828-2.153l-.319-.638 1.914-1.037.319.638zm3.908-2.153l-.319-.638 1.914-1.037.319.638zm3.908-2.153l-.319-.638 1.914-1.037.319.638zm3.828-2.153l-.319-.638 1.914-1.037.319.638zm3.908-2.074l-.319-.638 1.914-1.037.319.638zm3.908-2.153l-.319-.638 1.914-1.037.319.638zm3.828-2.153l-.319-.638 1.914-1.037.319.638zm3.908-2.153l-.319-.638 1.914-1.037.319.638zm3.908-2.153l-.319-.638 1.914-1.037.319.638zm3.828-2.153l-.319-.638 1.914-1.037.319.638zm3.908-2.233l-.479-.558a4.895 4.895 0 0 0 1.356-1.515l.638.4a5.009 5.009 0 0 1-1.512 1.668zm2.393-3.908l-.718-.159a4.213 4.213 0 0 0 .08-1.037 4.547 4.547 0 0 0-.08-1.037l.718-.16a9.011 9.011 0 0 1 0 2.393zm-1.515-4.147a6.162 6.162 0 0 0-1.356-1.515l.479-.558a5.609 5.609 0 0 1 1.6 1.755zm-3.19-2.632l-1.914-1.117.4-.638 1.914 1.117zm-3.908-2.233l-1.914-1.117.4-.638 1.914 1.117zm-3.828-2.153l-1.914-1.117.4-.638 1.914 1.117zm-3.828-2.233l-1.914-1.117.4-.638 1.914 1.117zm-3.828-2.233l-1.914-1.117.4-.638 1.914 1.117zm-3.828-2.153l-1.914-1.117.4-.638 1.914 1.117zm-3.908-2.233l-1.914-1.117.4-.638 1.914 1.117zm-3.828-2.233l-1.914-1.117.4-.638 1.914 1.117zm-3.828-2.153l-1.914-1.117.4-.638 1.914 1.117zm-3.828-2.233l-1.914-1.117.4-.638 1.914 1.117zm-3.828-2.233l-1.914-1.117.4-.638 1.914 1.117zm-3.908-2.153l-1.914-1.117.4-.638 1.914 1.117zm-3.828-2.233l-1.914-1.117.4-.638 1.914 1.117zm-3.828-2.233l-1.914-1.117.4-.638 1.914 1.117zm-3.828-2.153l-1.914-1.117.4-.638 1.914 1.117zm-3.828-2.233l-1.914-1.117.4-.638 1.914 1.117zm-3.908-2.233l-1.914-1.117.4-.638 1.914 1.117zm-3.828-2.153l-1.914-1.117.4-.638 1.914 1.117zm-3.828-2.233l-.479-.319a8.708 8.708 0 0 1-1.356-1.037l.558-.558a12.568 12.568 0 0 0 1.2.957l.479.319zm-3.19-3.27a7.556 7.556 0 0 1-.558-2.313h.718a4.325 4.325 0 0 0 .479 1.994zm.479-4.387l-.718-.239a7.487 7.487 0 0 1 1.117-2.074l.558.479a8.035 8.035 0 0 0-.961 1.824zm2.632-3.19l-.239-.319-.16-.319 1.914-1.117.4.638zm3.749-2.153l-.4-.638 1.914-1.117.4.638zm3.828-2.233l-.4-.638 1.914-1.117.4.638zm3.908-2.153l-.4-.638 1.914-1.117.4.638zm3.828-2.233l-.4-.638 1.914-1.117.4.638zm3.828-2.233l-.4-.638 1.914-1.117.4.638zm3.828-2.153l-.4-.638 1.914-1.117.4.638zm3.828-2.233l-.4-.638 1.914-1.117.4.638zm3.828-2.233l-.4-.638 1.914-1.117.4.638zm3.908-2.233l-.4-.638 1.914-1.117.4.638zm3.828-2.153l-.4-.638 1.914-1.117.4.638zm3.828-2.233l-.4-.638 1.914-1.117.4.638zm3.828-2.233l-.4-.638 1.91-1.13.4.718z" transform="translate(-343.3 -97.1)"/>
    </g>
    <g id="prefix__XMLID_37_" transform="translate(0 117.323)">
        <g id="prefix__XMLID_7325_">
            <g id="prefix__XMLID_7395_" transform="translate(0 4.147)">
                <g id="prefix__XMLID_7402_" transform="translate(.446 .358)">
                    <path id="prefix__XMLID_572_" d="M236.155 218.862a8.575 8.575 0 0 0 3.19 2.792l90.444 52.161c4.865 2.792 12.283 3.111 16.51.718l39.559-22.89a5.276 5.276 0 0 0 2.871-3.828 13.111 13.111 0 0 0-.239-5.1l-2.632.159a13.541 13.541 0 0 0-1.117-.8L294.3 189.911c-4.865-2.792-12.283-3.11-16.51-.718l-39.639 22.97-3.031-.16a8.686 8.686 0 0 0 .8 6.62v.08c.16 0 .16.08.239.159z" class="prefix__cls-2" transform="translate(-234.794 -187.588)"/>
                </g>
                <g id="prefix__XMLID_7398_">
                    <path id="prefix__XMLID_1255_" d="M339.008 276.6a19.371 19.371 0 0 1-9.571-2.393l-90.444-52.161a11.13 11.13 0 0 1-3.35-2.951l-.08-.08c0-.08-.08-.08-.08-.16a8.7 8.7 0 0 1-.877-7.019l.08-.319 3.19.16 39.48-22.811c4.387-2.552 11.964-2.233 16.988.718l90.444 52.081a4.054 4.054 0 0 1 1.037.718l2.871-.16.08.4a14.323 14.323 0 0 1 .239 5.264v.08a5.65 5.65 0 0 1-3.031 4.147L346.425 275a17.541 17.541 0 0 1-7.417 1.6zM236.44 218.532a8.476 8.476 0 0 0 3.031 2.712l90.444 52.161c4.785 2.712 11.964 3.031 16.031.718l39.559-22.89a4.847 4.847 0 0 0 2.632-3.509l.08-.239a13.97 13.97 0 0 0-.16-4.307l-1.914.08-.08.319-.558-.4a4.391 4.391 0 0 0-1.117-.718l-90.444-52.241c-4.785-2.712-11.964-3.031-16.031-.718l-39.719 22.97-2.791-.159a7.819 7.819 0 0 0 .877 5.9c0 .16.08.16.159.319l-.4.239z" class="prefix__cls-2" transform="translate(-234.234 -187.14)"/>
                </g>
            </g>
            <g id="prefix__XMLID_7387_" transform="translate(.292)">
                <g id="prefix__XMLID_7394_" transform="translate(.48 .538)">
                    <path id="prefix__XMLID_571_" fill="#9fa9be" d="M238.072 207.168l39.559-22.89c4.227-2.472 11.645-2.153 16.51.718l90.444 52.161c4.865 2.792 5.423 7.1 1.2 9.571l-39.559 22.89c-4.227 2.472-11.645 2.153-16.51-.718l-90.444-52.161c-4.949-2.871-5.428-7.099-1.2-9.571z" transform="translate(-235.202 -182.614)"/>
                </g>
                <g id="prefix__XMLID_7389_">
                    <path id="prefix__XMLID_1248_" d="M338.922 271.555a19.372 19.372 0 0 1-9.571-2.393l-90.444-52.241c-2.712-1.6-4.307-3.669-4.307-5.822a5.39 5.39 0 0 1 3.111-4.546l39.559-22.89c4.387-2.552 11.964-2.233 16.988.718l90.442 52.161c2.712 1.6 4.307 3.669 4.307 5.822a5.389 5.389 0 0 1-3.111 4.546L346.34 269.8a14.791 14.791 0 0 1-7.418 1.755zm-54.235-88.61a14.387 14.387 0 0 0-6.939 1.6l-39.559 22.89a4.526 4.526 0 0 0-2.632 3.749c0 1.755 1.356 3.589 3.828 5.025l90.444 52.161c4.785 2.712 11.964 3.031 16.031.718l39.559-22.89a4.526 4.526 0 0 0 2.632-3.749c0-1.755-1.356-3.589-3.828-5.025l-90.443-52.166a18.344 18.344 0 0 0-9.093-2.313z" class="prefix__cls-2" transform="translate(-234.6 -181.94)"/>
                </g>
            </g>
            <g id="prefix__XMLID_7378_" transform="translate(3.562 3.228)">
                <g id="prefix__XMLID_7386_" transform="translate(.459 .349)">
                    <path id="prefix__XMLID_570_" fill="#48586e" d="M278.854 188.16l-2.951 1.675a1.051 1.051 0 0 0 0 1.994 1.051 1.051 0 0 1 0 1.994l-22.013 12.761a3.721 3.721 0 0 1-3.43 0 3.721 3.721 0 0 0-3.43 0l-6.141 3.589c-2.153 1.2-2.153 3.27 0 4.466l91.481 52.64a16.049 16.049 0 0 0 14.277 0l38.044-22.013c2.153-1.2 2.153-3.27 0-4.466l-91.481-52.64c-3.987-2.313-10.447-2.313-14.356 0z" transform="translate(-239.275 -186.425)"/>
                </g>
                <g id="prefix__XMLID_7381_">
                    <path id="prefix__XMLID_1241_" d="M339.353 269.344a14.9 14.9 0 0 1-7.338-1.755l-91.481-52.64a3.141 3.141 0 0 1-1.834-2.632 3.047 3.047 0 0 1 1.834-2.632l6.141-3.589a4.229 4.229 0 0 1 3.908 0 3.212 3.212 0 0 0 2.951 0l22.013-12.761a.748.748 0 0 0 .479-.638c0-.239-.16-.4-.479-.558a1.6 1.6 0 0 1-.957-1.356 1.509 1.509 0 0 1 .957-1.356l2.951-1.675c4.068-2.313 10.608-2.393 14.675 0l91.481 52.64a3.141 3.141 0 0 1 1.834 2.632 3.046 3.046 0 0 1-1.834 2.632l-38.044 22.013a15.969 15.969 0 0 1-7.257 1.675zm-90.683-62.769a3.036 3.036 0 0 0-1.515.319l-6.141 3.589a1.919 1.919 0 0 0 0 3.669l91.481 52.64a15.542 15.542 0 0 0 13.8 0l38.044-22.013a1.919 1.919 0 0 0 0-3.669l-91.481-52.64a15.542 15.542 0 0 0-13.8 0l-2.951 1.675a.748.748 0 0 0-.479.638c0 .239.16.4.479.558a1.6 1.6 0 0 1 .957 1.356 1.509 1.509 0 0 1-.957 1.356l-22.013 12.761a4.229 4.229 0 0 1-3.908 0 4.644 4.644 0 0 0-1.516-.239z" class="prefix__cls-2" transform="translate(-238.7 -185.987)"/>
                </g>
            </g>
            <g id="prefix__XMLID_7377_" transform="translate(32.733 10.417)">
                <g id="prefix__XMLID_10000_">
                    <path id="prefix__XMLID_569_" d="M275.694 196.356c-.558-.319-.558-.8 0-1.117a2.032 2.032 0 0 1 1.914 0c.479.319.558.8 0 1.117a2.032 2.032 0 0 1-1.914 0z" class="prefix__cls-2" transform="translate(-275.275 -195)"/>
                </g>
            </g>
            <g id="prefix__XMLID_7375_" transform="translate(18.401 12.16)">
                <g id="prefix__XMLID_9998_">
                    <path id="prefix__XMLID_568_" d="M257.62 203.977l11.485-6.62a2.128 2.128 0 0 1 1.834.08c.558.319.558.8.159 1.037l-11.485 6.62a2.128 2.128 0 0 1-1.834-.08c-.558-.24-.637-.714-.159-1.037z" class="prefix__cls-2" transform="translate(-257.306 -197.186)"/>
                </g>
            </g>
            <g id="prefix__XMLID_7373_" transform="translate(102.958 89.494)">
                <g id="prefix__XMLID_7374_">
                    <path id="prefix__XMLID_567_" d="M0 0H3.43V0.558H0z" class="prefix__cls-5" transform="rotate(-89.405 1.732 1.714)"/>
                </g>
            </g>
            <g id="prefix__XMLID_7370_" transform="translate(151.591 64.332)">
                <g id="prefix__XMLID_7371_">
                    <path id="prefix__XMLID_566_" d="M424.779 266.428l-.479-.16a6.457 6.457 0 0 0 0-3.509l.479-.16a7.756 7.756 0 0 1 0 3.829z" class="prefix__cls-6" transform="translate(-424.3 -262.6)"/>
                </g>
            </g>
            <g id="prefix__XMLID_7367_" transform="translate(149.995 65.289)">
                <g id="prefix__XMLID_7369_">
                    <path id="prefix__XMLID_565_" d="M422.779 267.628l-.479-.16a6.457 6.457 0 0 0 0-3.509l.479-.16a6.822 6.822 0 0 1 0 3.829z" class="prefix__cls-6" transform="translate(-422.3 -263.8)"/>
                </g>
            </g>
            <g id="prefix__XMLID_7364_" transform="translate(4.669 35.062)">
                <g id="prefix__XMLID_7366_">
                    <path id="prefix__XMLID_564_" d="M240.337 229.649a19.033 19.033 0 0 1-.239-3.749h.558a18.325 18.325 0 0 0 .239 3.669z" class="prefix__cls-5" transform="translate(-240.089 -225.9)"/>
                </g>
            </g>
            <g id="prefix__XMLID_7362_" transform="translate(2.994 34.025)">
                <g id="prefix__XMLID_7363_">
                    <path id="prefix__XMLID_563_" d="M238.237 228.349A19.03 19.03 0 0 1 238 224.6h.558a18.32 18.32 0 0 0 .239 3.669z" class="prefix__cls-5" transform="translate(-237.989 -224.6)"/>
                </g>
            </g>
            <g id="prefix__XMLID_7335_" transform="translate(15.924 42.153)">
                <g id="prefix__XMLID_7356_" transform="translate(7.976 4.706)">
                    <g id="prefix__XMLID_7357_">
                        <path id="prefix__XMLID_1215_" d="M271.378 246.68a1.479 1.479 0 0 1-.558-.16l-5.583-3.19a2.133 2.133 0 0 1-1.037-1.675v-.155a1.011 1.011 0 0 1 .319-.718c.239-.16.558-.08.957.08l5.583 3.19a2.133 2.133 0 0 1 1.037 1.675v.16a1.011 1.011 0 0 1-.319.718.719.719 0 0 1-.399.075zm-6.46-5.344h-.08a.293.293 0 0 0-.08.239v.159a1.5 1.5 0 0 0 .8 1.2l5.583 3.19a1.067 1.067 0 0 0 .4.08.293.293 0 0 0 .08-.239v-.16a1.5 1.5 0 0 0-.8-1.2l-5.583-3.19a.48.48 0 0 0-.32-.079z" class="prefix__cls-5" transform="translate(-264.2 -240.691)"/>
                    </g>
                </g>
                <g id="prefix__XMLID_7350_" transform="translate(16.908 9.89)">
                    <g id="prefix__XMLID_7352_">
                        <path id="prefix__XMLID_1210_" d="M282.578 253.18a1.479 1.479 0 0 1-.558-.159l-5.583-3.19a2.133 2.133 0 0 1-1.037-1.675V248a1.011 1.011 0 0 1 .319-.718c.239-.16.558-.08.957.08l5.583 3.19a2.133 2.133 0 0 1 1.037 1.675v.16a1.011 1.011 0 0 1-.319.718 3.458 3.458 0 0 0-.399.075zm-6.46-5.423h-.08a.293.293 0 0 0-.08.239v.16a1.5 1.5 0 0 0 .8 1.2l5.583 3.19a1.067 1.067 0 0 0 .4.08.293.293 0 0 0 .08-.239v-.159a1.5 1.5 0 0 0-.8-1.2l-5.583-3.19c-.161-.002-.238-.082-.32-.082z" class="prefix__cls-5" transform="translate(-275.4 -247.191)"/>
                    </g>
                </g>
                <g id="prefix__XMLID_7403_" transform="translate(111.5 33.099)">
                    <g id="prefix__XMLID_7405_">
                        <path id="prefix__XMLID_1205_" d="M394.319 282.2a.777.777 0 0 1-.319-.718v-.16a2.412 2.412 0 0 1 1.037-1.675l5.583-3.19a1.04 1.04 0 0 1 .957-.08.778.778 0 0 1 .319.718v.16a2.412 2.412 0 0 1-1.037 1.675l-5.583 3.19a1.478 1.478 0 0 1-.558.16 3.461 3.461 0 0 1-.399-.08zm6.46-5.264l-5.583 3.19a1.715 1.715 0 0 0-.8 1.2v.16a.293.293 0 0 0 .08.239.867.867 0 0 0 .4-.08l5.583-3.19a1.715 1.715 0 0 0 .8-1.2v-.16a.293.293 0 0 0-.08-.239h-.08a.6.6 0 0 0-.32.08z" class="prefix__cls-5" transform="translate(-394 -276.291)"/>
                    </g>
                </g>
                <g id="prefix__XMLID_7336_">
                    <g id="prefix__XMLID_7345_">
                        <g id="prefix__XMLID_7346_">
                            <path id="prefix__XMLID_1200_" d="M258.906 239.424a1.478 1.478 0 0 1-.558-.16l-3.111-1.834a2.133 2.133 0 0 1-1.037-1.675v-.16a1.011 1.011 0 0 1 .319-.718c.239-.16.558-.08.957.08l3.111 1.834a2.133 2.133 0 0 1 1.037 1.675v.159a1.011 1.011 0 0 1-.319.718.867.867 0 0 1-.399.081zm-4.068-3.988h-.08a.293.293 0 0 0-.08.239v.159a1.5 1.5 0 0 0 .8 1.2l3.111 1.834a1.067 1.067 0 0 0 .4.08.293.293 0 0 0 .08-.239v-.16a1.5 1.5 0 0 0-.8-1.2l-3.111-1.834c-.081.001-.24-.079-.32-.079z" class="prefix__cls-5" transform="translate(-254.2 -234.791)"/>
                        </g>
                    </g>
                    <g id="prefix__XMLID_7337_" transform="translate(2.393 1.436)">
                        <g id="prefix__XMLID_7343_" transform="translate(.239 .376)">
                            <path id="prefix__XMLID_562_" d="M257.5 237.73v-.16c0-.479.4-.638.877-.4l.718.4a1.869 1.869 0 0 1 .877 1.436v.16c0 .479-.4.638-.877.4l-.718-.4a2.007 2.007 0 0 1-.877-1.436z" class="prefix__cls-5" transform="translate(-257.5 -237.062)"/>
                        </g>
                        <g id="prefix__XMLID_7339_">
                            <path id="prefix__XMLID_1193_" d="M259.513 239.788a1.479 1.479 0 0 1-.558-.159l-.718-.4a2.133 2.133 0 0 1-1.037-1.675v-.154a1.011 1.011 0 0 1 .319-.718c.239-.16.558-.08.957.08l.718.4a2.133 2.133 0 0 1 1.037 1.675v.16a1.011 1.011 0 0 1-.319.718.868.868 0 0 1-.399.073zm-1.834-2.153a1.5 1.5 0 0 0 .8 1.2l.718.4a1.067 1.067 0 0 0 .4.08.293.293 0 0 0 .08-.239v-.16a1.5 1.5 0 0 0-.8-1.2l-.718-.4a1.068 1.068 0 0 0-.4-.08.293.293 0 0 0-.08.239z" class="prefix__cls-5" transform="translate(-257.2 -236.591)"/>
                        </g>
                    </g>
                </g>
                <rect id="prefix__Rectangle_117" width="21.787" height=".908" class="prefix__cls-7" data-name="Rectangle 117" rx=".454" transform="rotate(-30 116.843 -169.888)"/>
            </g>
            <g id="prefix__XMLID_7332_" transform="translate(104.825 89.449)">
                <g id="prefix__XMLID_7333_">
                    <path id="prefix__XMLID_561_" d="M0 0H0.558V3.509H0z" class="prefix__cls-5" transform="rotate(-.736 .545 .003)"/>
                </g>
            </g>
            <g id="prefix__XMLID_7602_" transform="translate(111.364 87.774)">
                <g id="prefix__XMLID_7603_">
                    <path id="prefix__XMLID_560_" d="M0 0H0.558V3.509H0z" class="prefix__cls-5" transform="rotate(-.736 .545 .003)"/>
                </g>
            </g>
            <g id="prefix__XMLID_7329_" transform="translate(97.973 88.528)">
                <g id="prefix__XMLID_7330_">
                    <path id="prefix__XMLID_559_" d="M0 0H3.43V0.558H0z" class="prefix__cls-5" transform="rotate(-89.405 1.732 1.714)"/>
                </g>
            </g>
            <g id="prefix__XMLID_7327_" transform="translate(89.96 84.168)">
                <g id="prefix__XMLID_7328_">
                    <path id="prefix__XMLID_558_" d="M0 0H3.43V0.558H0z" class="prefix__cls-5" transform="rotate(-89.37 1.733 1.714)"/>
                </g>
            </g>
        </g>
    </g>
    <g id="prefix__XMLID_63_" transform="translate(100.972)">
        <g id="prefix__XMLID_109_">
            <g id="prefix__XMLID_168_" transform="translate(0 3.988)">
                <g id="prefix__XMLID_172_" transform="translate(.526 .517)">
                    <path id="prefix__XMLID_544_" d="M362.775 71.762a8.574 8.574 0 0 0 3.19 2.791l90.444 52.161c4.865 2.791 12.283 3.111 16.51.718l39.559-22.89a5.277 5.277 0 0 0 2.871-3.828 13.112 13.112 0 0 0-.239-5.1l-2.632.16a13.539 13.539 0 0 0-1.117-.8l-90.443-52.163c-4.865-2.791-12.283-3.111-16.51-.718l-39.559 22.89-3.031-.16a8.685 8.685 0 0 0 .8 6.62v.08a.615.615 0 0 1 .159.239z" class="prefix__cls-2" transform="translate(-361.494 -40.488)"/>
                </g>
                <g id="prefix__XMLID_169_">
                    <path id="prefix__XMLID_766_" d="M465.608 129.375a19.372 19.372 0 0 1-9.571-2.393l-90.445-52.161a11.129 11.129 0 0 1-3.35-2.951l-.08-.08c0-.08-.08-.08-.08-.16a8.7 8.7 0 0 1-.877-7.019l.08-.319 3.19.16 39.559-22.89c4.387-2.552 11.964-2.233 16.988.718l90.445 52.161a4.054 4.054 0 0 1 1.037.718l2.871-.16.08.4a14.323 14.323 0 0 1 .239 5.264v.08a5.65 5.65 0 0 1-3.031 4.147l-39.638 22.81a15.435 15.435 0 0 1-7.417 1.675zM363.04 71.312a8.476 8.476 0 0 0 3.031 2.712l90.444 52.161c4.785 2.712 11.964 3.031 16.031.718l39.56-22.89a4.847 4.847 0 0 0 2.632-3.509l.08-.239a13.973 13.973 0 0 0-.159-4.307l-1.914.08-.08.319-.558-.4a4.393 4.393 0 0 0-1.117-.718l-90.445-52.161c-4.785-2.712-11.964-3.031-16.031-.718l-39.719 22.97-2.795-.159a7.819 7.819 0 0 0 .877 5.9c.08.08.08.16.159.239l-.4.239z" class="prefix__cls-2" transform="translate(-360.834 -39.84)"/>
                </g>
            </g>
            <g id="prefix__XMLID_163_" transform="translate(.292)">
                <g id="prefix__XMLID_167_" transform="translate(.507 .458)">
                    <path id="prefix__XMLID_543_" d="M364.678 59.968l39.559-22.89c4.227-2.472 11.645-2.153 16.51.718l90.444 52.161c4.865 2.791 5.423 7.1 1.2 9.571l-39.559 22.89c-4.227 2.472-11.645 2.153-16.51-.718l-90.447-52.161c-4.865-2.792-5.424-7.099-1.197-9.571z" class="prefix__cls-7" transform="translate(-361.835 -35.414)"/>
                </g>
                <g id="prefix__XMLID_164_">
                    <path id="prefix__XMLID_759_" d="M465.522 124.375a19.372 19.372 0 0 1-9.571-2.393l-90.444-52.161C362.8 68.226 361.2 66.153 361.2 64a5.389 5.389 0 0 1 3.111-4.546l39.559-22.89c4.387-2.552 11.964-2.233 16.988.718l90.442 52.16c2.712 1.6 4.307 3.669 4.307 5.822a5.39 5.39 0 0 1-3.107 4.546l-39.56 22.89a15.435 15.435 0 0 1-7.418 1.675zm-54.155-88.53a14.387 14.387 0 0 0-6.939 1.6L364.869 60.33a4.526 4.526 0 0 0-2.632 3.749c0 1.755 1.356 3.589 3.828 5.025l90.444 52.161c4.785 2.712 11.964 3.031 16.031.718l39.56-22.89a4.526 4.526 0 0 0 2.632-3.749c0-1.755-1.356-3.589-3.828-5.025L420.46 38.078a18.722 18.722 0 0 0-9.093-2.233z" class="prefix__cls-2" transform="translate(-361.2 -34.84)"/>
                </g>
            </g>
            <g id="prefix__XMLID_158_" transform="translate(3.562 3.149)">
                <g id="prefix__XMLID_162_" transform="translate(.538 .409)">
                    <path id="prefix__XMLID_542_" fill="#06b470" d="M405.554 40.975L402.6 42.65a1.051 1.051 0 0 0 0 1.994 1.051 1.051 0 0 1 0 1.994L380.59 59.4a3.721 3.721 0 0 1-3.43 0 3.721 3.721 0 0 0-3.43 0l-6.141 3.589c-2.153 1.2-2.153 3.27 0 4.466l91.481 52.64a16.049 16.049 0 0 0 14.276 0l38.044-22.013c2.153-1.2 2.153-3.27 0-4.466l-91.481-52.64c-4.066-2.234-10.447-2.234-14.355-.001z" transform="translate(-365.975 -39.3)"/>
                </g>
                <g id="prefix__XMLID_159_">
                    <path id="prefix__XMLID_752_" d="M465.953 122.144a14.9 14.9 0 0 1-7.338-1.755l-91.481-52.64a3.141 3.141 0 0 1-1.834-2.632 3.047 3.047 0 0 1 1.834-2.632l6.141-3.589a4.229 4.229 0 0 1 3.908 0 3.213 3.213 0 0 0 2.951 0l22.013-12.761a.748.748 0 0 0 .479-.638c0-.239-.16-.4-.479-.558a1.6 1.6 0 0 1-.957-1.356 1.509 1.509 0 0 1 .957-1.356l2.951-1.675c4.068-2.313 10.608-2.393 14.675 0l91.481 52.64a3.141 3.141 0 0 1 1.834 2.632 3.047 3.047 0 0 1-1.834 2.632l-38.044 22.013a14.791 14.791 0 0 1-7.257 1.675zM375.27 59.375a3.036 3.036 0 0 0-1.515.319l-6.141 3.589a1.919 1.919 0 0 0 0 3.669l91.481 52.64a15.542 15.542 0 0 0 13.8 0l38.044-22.013a1.919 1.919 0 0 0 0-3.669l-91.484-52.64a15.542 15.542 0 0 0-13.8 0l-2.951 1.675a.748.748 0 0 0-.479.638c0 .239.16.4.479.558a1.6 1.6 0 0 1 .957 1.356 1.509 1.509 0 0 1-.957 1.356l-22.011 12.761a4.229 4.229 0 0 1-3.908 0 7.548 7.548 0 0 0-1.515-.239z" class="prefix__cls-2" transform="translate(-365.3 -38.787)"/>
                </g>
            </g>
            <g id="prefix__XMLID_156_" transform="translate(32.733 10.417)">
                <g id="prefix__XMLID_157_">
                    <path id="prefix__XMLID_541_" d="M402.294 49.256c-.558-.319-.558-.8 0-1.117a2.032 2.032 0 0 1 1.914 0c.558.319.558.8 0 1.117a2.032 2.032 0 0 1-1.914 0z" class="prefix__cls-2" transform="translate(-401.875 -47.9)"/>
                </g>
            </g>
            <g id="prefix__XMLID_154_" transform="translate(18.401 12.16)">
                <g id="prefix__XMLID_155_">
                    <path id="prefix__XMLID_540_" d="M384.22 56.877l11.485-6.62a2.128 2.128 0 0 1 1.834.08c.558.319.558.8.16 1.037l-11.485 6.62a2.128 2.128 0 0 1-1.834-.08c-.559-.32-.638-.798-.16-1.037z" class="prefix__cls-2" transform="translate(-383.906 -50.086)"/>
                </g>
            </g>
            <g id="prefix__XMLID_152_" transform="translate(103.029 89.409)">
                <g id="prefix__XMLID_153_">
                    <path id="prefix__XMLID_539_" d="M0 0H3.43V0.558H0z" class="prefix__cls-6" transform="rotate(-89.405 1.732 1.714)"/>
                </g>
            </g>
            <g id="prefix__XMLID_150_" transform="translate(151.591 64.332)">
                <g id="prefix__XMLID_151_">
                    <path id="prefix__XMLID_538_" d="M551.379 119.328l-.479-.16a6.457 6.457 0 0 0 0-3.509l.479-.16a6.1 6.1 0 0 1 0 3.829z" class="prefix__cls-6" transform="translate(-550.9 -115.5)"/>
                </g>
            </g>
            <g id="prefix__XMLID_148_" transform="translate(149.995 65.21)">
                <g id="prefix__XMLID_149_">
                    <path id="prefix__XMLID_537_" d="M549.379 120.428l-.479-.16a6.457 6.457 0 0 0 0-3.509l.479-.16a6.1 6.1 0 0 1 0 3.829z" class="prefix__cls-6" transform="translate(-548.9 -116.6)"/>
                </g>
            </g>
            <g id="prefix__XMLID_146_" transform="translate(4.749 34.982)">
                <g id="prefix__XMLID_147_">
                    <path id="prefix__XMLID_536_" d="M367.037 82.449a19.03 19.03 0 0 1-.237-3.749h.558a18.322 18.322 0 0 0 .239 3.669z" class="prefix__cls-6" transform="translate(-366.789 -78.7)"/>
                </g>
            </g>
            <g id="prefix__XMLID_144_" transform="translate(2.994 34.025)">
                <g id="prefix__XMLID_145_">
                    <path id="prefix__XMLID_535_" d="M364.837 81.249a19.035 19.035 0 0 1-.237-3.749h.558a18.323 18.323 0 0 0 .239 3.669z" class="prefix__cls-6" transform="translate(-364.589 -77.5)"/>
                </g>
            </g>
            <g id="prefix__XMLID_118_" transform="translate(15.924 42.153)">
                <g id="prefix__XMLID_140_" transform="translate(8.055 4.706)">
                    <g id="prefix__XMLID_141_">
                        <path id="prefix__XMLID_726_" d="M398.078 99.58a1.479 1.479 0 0 1-.558-.16l-5.583-3.19a2.133 2.133 0 0 1-1.037-1.675V94.4a1.011 1.011 0 0 1 .319-.718c.239-.16.558-.08.957.08l5.583 3.19a2.133 2.133 0 0 1 1.037 1.675v.16a1.011 1.011 0 0 1-.319.718.867.867 0 0 1-.399.075zm-6.46-5.423h-.08a.293.293 0 0 0-.08.239v.16a1.5 1.5 0 0 0 .8 1.2l5.583 3.19a1.067 1.067 0 0 0 .4.08.293.293 0 0 0 .08-.239v-.16a1.5 1.5 0 0 0-.8-1.2l-5.583-3.19c-.161-.001-.238-.081-.32-.081z" class="prefix__cls-6" transform="translate(-390.9 -93.591)"/>
                    </g>
                </g>
                <g id="prefix__XMLID_136_" transform="translate(16.908 9.81)">
                    <g id="prefix__XMLID_137_">
                        <path id="prefix__XMLID_721_" d="M409.178 105.98a1.478 1.478 0 0 1-.558-.16l-5.583-3.19a2.133 2.133 0 0 1-1.037-1.675v-.16a1.011 1.011 0 0 1 .319-.718c.239-.16.558-.08.957.08l5.583 3.19a2.133 2.133 0 0 1 1.037 1.675v.16a1.011 1.011 0 0 1-.319.718.719.719 0 0 1-.399.08zm-6.46-5.344h-.08a.293.293 0 0 0-.08.239v.16a1.5 1.5 0 0 0 .8 1.2l5.583 3.19a1.067 1.067 0 0 0 .4.08.293.293 0 0 0 .08-.239v-.16a1.5 1.5 0 0 0-.8-1.2l-5.583-3.19a.48.48 0 0 0-.32-.08z" class="prefix__cls-6" transform="translate(-402 -99.991)"/>
                    </g>
                </g>
                <g id="prefix__XMLID_132_" transform="translate(111.5 33.019)">
                    <g id="prefix__XMLID_133_">
                        <path id="prefix__XMLID_716_" d="M520.919 135a.778.778 0 0 1-.319-.718v-.159a2.412 2.412 0 0 1 1.037-1.675l5.583-3.19a1.04 1.04 0 0 1 .957-.08.777.777 0 0 1 .319.718v.16a2.412 2.412 0 0 1-1.037 1.675l-5.583 3.19a1.478 1.478 0 0 1-.558.16.719.719 0 0 1-.399-.081zm6.54-5.184l-5.583 3.19a1.716 1.716 0 0 0-.8 1.2v.16a.293.293 0 0 0 .08.239.867.867 0 0 0 .4-.08l5.583-3.19a1.715 1.715 0 0 0 .8-1.2v-.16a.293.293 0 0 0-.08-.239h-.08a.479.479 0 0 0-.32.08z" class="prefix__cls-6" transform="translate(-520.6 -129.091)"/>
                    </g>
                </g>
                <g id="prefix__XMLID_119_">
                    <g id="prefix__XMLID_126_">
                        <g id="prefix__XMLID_128_">
                            <path id="prefix__XMLID_711_" d="M385.506 92.324a1.479 1.479 0 0 1-.558-.16l-3.111-1.834a2.133 2.133 0 0 1-1.037-1.675V88.5a1.011 1.011 0 0 1 .319-.718c.239-.16.558-.08.957.08l3.111 1.834a2.133 2.133 0 0 1 1.037 1.675v.16a1.011 1.011 0 0 1-.319.718.719.719 0 0 1-.399.075zm-3.988-3.988h-.08a.293.293 0 0 0-.08.239v.16a1.5 1.5 0 0 0 .8 1.2l3.111 1.834a1.067 1.067 0 0 0 .4.08.293.293 0 0 0 .08-.239v-.16a1.5 1.5 0 0 0-.8-1.2l-3.111-1.834a.6.6 0 0 0-.32-.08z" class="prefix__cls-6" transform="translate(-380.8 -87.691)"/>
                        </g>
                    </g>
                    <g id="prefix__XMLID_120_" transform="translate(2.393 1.436)">
                        <g id="prefix__XMLID_125_" transform="translate(.239 .296)">
                            <path id="prefix__XMLID_534_" d="M384.1 90.53v-.16c0-.479.4-.638.877-.4l.718.4a1.869 1.869 0 0 1 .877 1.436v.16c0 .479-.4.638-.877.4l-.718-.4a2.007 2.007 0 0 1-.877-1.436z" class="prefix__cls-6" transform="translate(-384.1 -89.862)"/>
                        </g>
                        <g id="prefix__XMLID_121_">
                            <path id="prefix__XMLID_704_" d="M386.113 92.688a1.479 1.479 0 0 1-.558-.16l-.718-.4a2.133 2.133 0 0 1-1.037-1.675V90.3a1.011 1.011 0 0 1 .319-.718c.239-.16.558-.08.957.08l.718.4a2.133 2.133 0 0 1 1.037 1.675v.16a1.011 1.011 0 0 1-.319.718.719.719 0 0 1-.399.073zm-1.755-2.233a1.5 1.5 0 0 0 .8 1.2l.718.4a1.067 1.067 0 0 0 .4.08.293.293 0 0 0 .08-.239v-.16a1.5 1.5 0 0 0-.8-1.2l-.718-.4a1.067 1.067 0 0 0-.4-.08.293.293 0 0 0-.08.239z" class="prefix__cls-6" transform="translate(-383.8 -89.491)"/>
                        </g>
                    </g>
                </g>
            </g>
            <g id="prefix__XMLID_116_" transform="translate(104.902 89.371)">
                <g id="prefix__XMLID_117_">
                    <path id="prefix__XMLID_533_" d="M0 0H0.558V3.509H0z" class="prefix__cls-6" transform="rotate(-.736 .545 .003)"/>
                </g>
            </g>
            <g id="prefix__XMLID_114_" transform="translate(111.363 87.776)">
                <g id="prefix__XMLID_115_">
                    <path id="prefix__XMLID_532_" d="M0 0H0.558V3.509H0z" class="prefix__cls-6" transform="rotate(-.736 .545 .003)"/>
                </g>
            </g>
            <g id="prefix__XMLID_112_" transform="translate(98.044 88.523)">
                <g id="prefix__XMLID_113_">
                    <path id="prefix__XMLID_531_" d="M0 0H3.43V0.558H0z" class="prefix__cls-6" transform="rotate(-89.405 1.732 1.714)"/>
                </g>
            </g>
            <g id="prefix__XMLID_110_" transform="translate(89.951 84.162)">
                <g id="prefix__XMLID_111_">
                    <path id="prefix__XMLID_530_" d="M0 0H3.43V0.558H0z" class="prefix__cls-6" transform="rotate(-89.405 1.732 1.714)"/>
                </g>
            </g>
        </g>
        <g id="prefix__XMLID_82_" transform="translate(62.183 35.729)">
            <path id="prefix__XMLID_22_" d="M443.825 105.289a3.63 3.63 0 0 1-1.6-.4l-2.632-1.515a1.5 1.5 0 0 1-.8-1.117 1.125 1.125 0 0 1 .638-.957l37.087-21.375a3.134 3.134 0 0 1 2.792.08l2.632 1.515a1.5 1.5 0 0 1 .8 1.117 1.125 1.125 0 0 1-.638.957l-37.083 21.376a2.077 2.077 0 0 1-1.196.319zm33.9-24.884a2.867 2.867 0 0 0-.877.16l-37.087 21.375c-.08.08-.239.16-.239.319a.643.643 0 0 0 .4.479l2.632 1.515a2.383 2.383 0 0 0 2.074.08l37.087-21.375c.08-.08.239-.16.239-.319a.643.643 0 0 0-.4-.479l-2.632-1.515a2.664 2.664 0 0 0-1.201-.245z" class="prefix__cls-7" transform="translate(-438.8 -79.637)"/>
        </g>
        <g id="prefix__XMLID_81_" transform="translate(64.177 37.005)">
            <path id="prefix__XMLID_19_" d="M451.908 110a3.631 3.631 0 0 1-1.6-.4l-8.215-4.626a1.5 1.5 0 0 1-.8-1.117 1.125 1.125 0 0 1 .638-.957l37.087-21.375a3.134 3.134 0 0 1 2.792.08l8.215 4.626a1.5 1.5 0 0 1 .8 1.117 1.125 1.125 0 0 1-.638.957l-37.003 21.455a3.307 3.307 0 0 1-1.276.24zm28.314-28.074a2.868 2.868 0 0 0-.877.16l-37.088 21.374c-.08.08-.239.159-.239.319a.643.643 0 0 0 .4.479l8.215 4.626a2.383 2.383 0 0 0 2.074.08l37.087-21.375c.08-.08.239-.16.239-.319a.643.643 0 0 0-.4-.479l-8.215-4.626a4.519 4.519 0 0 0-1.197-.24z" class="prefix__cls-7" transform="translate(-441.3 -81.237)"/>
        </g>
        <g id="prefix__XMLID_80_" transform="translate(45.514 38.281)">
            <path id="prefix__XMLID_16_" d="M431.778 101.471a3.63 3.63 0 0 1-1.6-.4L418.7 94.452a1.5 1.5 0 0 1-.8-1.117 1.125 1.125 0 0 1 .638-.957l16.031-9.252a3.134 3.134 0 0 1 2.791.08l11.485 6.62a1.5 1.5 0 0 1 .8 1.117 1.125 1.125 0 0 1-.638.957l-16.031 9.252a1.782 1.782 0 0 1-1.198.319zm4.067-17.871a2.867 2.867 0 0 0-.877.16l-16.031 9.252c-.08.08-.239.16-.239.319a.643.643 0 0 0 .4.479l11.485 6.62a2.383 2.383 0 0 0 2.074.08l16.031-9.252c.08-.08.239-.16.239-.319a.643.643 0 0 0-.4-.479l-11.485-6.62a2.914 2.914 0 0 0-1.197-.24z" class="prefix__cls-7" transform="translate(-417.9 -82.837)"/>
        </g>
        <g id="prefix__XMLID_79_" transform="translate(66.57 26.158)">
            <path id="prefix__XMLID_13_" d="M458.178 86.271a3.631 3.631 0 0 1-1.6-.4L445.1 79.252a1.5 1.5 0 0 1-.8-1.117 1.125 1.125 0 0 1 .638-.957l16.031-9.252a3.134 3.134 0 0 1 2.792.08l11.485 6.62a1.5 1.5 0 0 1 .8 1.117 1.125 1.125 0 0 1-.638.957l-16.031 9.252a1.922 1.922 0 0 1-1.199.319zm4.068-17.945a2.867 2.867 0 0 0-.877.16l-16.031 9.252c-.08.08-.239.16-.239.319a.643.643 0 0 0 .4.479l11.485 6.62a2.383 2.383 0 0 0 2.074.08l16.031-9.252c.08-.08.239-.16.239-.319a.643.643 0 0 0-.4-.479l-11.485-6.62a5.3 5.3 0 0 0-1.198-.241z" class="prefix__cls-7" transform="translate(-444.3 -67.637)"/>
        </g>
        <g id="prefix__XMLID_62_" transform="translate(48.309 39.929)">
            <path id="prefix__XMLID_12_" d="M0 0H21.136V0.718H0z" class="prefix__cls-7" transform="rotate(-30 19.72 5.285)"/>
        </g>
        <g id="prefix__XMLID_61_" transform="translate(69.375 27.664)">
            <path id="prefix__XMLID_11_" d="M0 0H21.136V0.718H0z" class="prefix__cls-7" transform="rotate(-30 19.72 5.285)"/>
        </g>
    </g>
    <rect id="prefix__Rectangle_118" width="4.539" height=".908" class="prefix__cls-7" data-name="Rectangle 118" rx=".454" transform="rotate(-30 248.173 -384.414)"/>
</svg>
