<svg xmlns="http://www.w3.org/2000/svg" width="22" height="29.25" viewBox="0 0 22 29.25">
    <defs>
        <style>
            .prefix__cls-1{fill:none;stroke:#a8c7ff;stroke-linecap:round;stroke-linejoin:round;stroke-width:1.5px}
        </style>
        <style type="text/css">
            @font-face {
              font-family: Montserrat;
              src: url("../vendor/fonts/Montserrat/Montserrat-Regular.ttf");
            }
        </style>
    </defs>
    <g id="prefix__Component_167_1" data-name="Component 167 – 1" transform="translate(0 .75)">
        <g id="prefix__Icon_feather-copy" data-name="Icon feather-copy" transform="translate(3)">
            <path id="prefix__Path_376" d="M14.932 13.5h6.445a1.432 1.432 0 0 1 1.432 1.432v6.445a1.432 1.432 0 0 1-1.432 1.432h-6.445a1.432 1.432 0 0 1-1.432-1.432v-6.445a1.432 1.432 0 0 1 1.432-1.432z" class="prefix__cls-1" data-name="Path 376" transform="translate(-8.487 -8.487)"/>
            <path id="prefix__Path_377" d="M5.148 12.31h-.716A1.432 1.432 0 0 1 3 10.877V4.432A1.432 1.432 0 0 1 4.432 3h6.445a1.432 1.432 0 0 1 1.433 1.432v.716" class="prefix__cls-1" data-name="Path 377" transform="translate(-3 -3)"/>
        </g>
        <text id="prefix__COPY" fill="#a8c7ff" font-family="Montserrat-SemiBold, Montserrat" font-size="7px" font-weight="600" letter-spacing="0.032em" transform="translate(11 26.5)">
            <tspan x="-10.595" y="0">COPY</tspan>
        </text>
    </g>
</svg>