<svg xmlns="http://www.w3.org/2000/svg" id="prefix__Payment_Screen_Image" width="261" height="155.344" data-name="Payment Screen Image" viewBox="0 0 261 155.344">
    <defs>
        <style>
            .prefix__cls-1{fill:#eeebff}.prefix__cls-2{fill:#3f3d56}.prefix__cls-4{fill:#017afc}
        </style>
    </defs>
    <g id="prefix__Group_43" data-name="Group 43">
        <path id="prefix__Path_295" d="M153.547 237.26H76.992v-75.423h.669v74.755h75.887z" class="prefix__cls-1" data-name="Path 295" transform="translate(-51.253 -81.916)"/>
        <path id="prefix__Path_298" d="M137.985 223.8h-.573v-15.689a9.082 9.082 0 0 0-9.082-9.082H95.086A9.082 9.082 0 0 0 86 208.111V294.2a9.082 9.082 0 0 0 9.082 9.082h33.245a9.082 9.082 0 0 0 9.082-9.082v-59.228h.573z" class="prefix__cls-2" data-name="Path 298" transform="translate(-86.004 -168.595)"/>
        <path id="prefix__Path_299" fill="#edeaff" d="M140.47 214.289v85.96a6.783 6.783 0 0 1-6.782 6.784h-33.4a6.782 6.782 0 0 1-6.788-6.783v-85.961a6.782 6.782 0 0 1 6.781-6.781h4.054a3.222 3.222 0 0 0 2.984 4.438h19.046a3.222 3.222 0 0 0 2.984-4.438h4.339a6.782 6.782 0 0 1 6.781 6.78z" data-name="Path 299" transform="translate(-90.996 -174.239)"/>
        <rect id="prefix__Rectangle_89" width="8.949" height="2.652" class="prefix__cls-2" data-name="Rectangle 89" rx="1.326" transform="translate(21.516 83.911)"/>
        <circle id="prefix__Ellipse_68" cx="9.632" cy="9.632" r="9.632" class="prefix__cls-4" data-name="Ellipse 68" transform="translate(13.727 101.886)"/>
        <path id="prefix__Path_300" d="M140.323 415.7a12.077 12.077 0 1 1 12.077-12.072 12.077 12.077 0 0 1-12.077 12.072zm0-23.714a11.637 11.637 0 1 0 11.637 11.637 11.637 11.637 0 0 0-11.637-11.632z" class="prefix__cls-2" data-name="Path 300" transform="translate(-114.125 -296.757)"/>
        <path id="prefix__Rectangle_95" fill="#d0cde1" d="M0 0H9.36V9.36H0z" data-name="Rectangle 95" transform="translate(24.976 69.774)"/>
        <path id="prefix__Path_301" fill="#f1efff" d="M255.875 549.778h-11.366v-11.366h11.366zM245 549.284h10.378v-10.378H245z" data-name="Path 301" transform="translate(-215.856 -475.992)"/>
        <path id="prefix__Path_308" d="M77.047 74.848H0V0h.673v74.185h76.374z" class="prefix__cls-1" data-name="Path 308" transform="rotate(90 49.29 127.587)"/>
        <path id="prefix__Path_309" d="M77.047 74.848H0V0h.673v74.185h76.374z" class="prefix__cls-1" data-name="Path 309" transform="rotate(90 115.696 115.696)"/>
        <rect id="prefix__Rectangle_76" width="114.906" height="78.284" fill="#fc6161" data-name="Rectangle 76" rx="8" transform="translate(71.996 43.096)"/>
        <rect id="prefix__Rectangle_77" width="51.731" height="5.951" class="prefix__cls-2" data-name="Rectangle 77" rx="2" transform="translate(86.096 87.96)"/>
        <path id="prefix__Path_292" d="M690.578 599.748H674.1a1.374 1.374 0 0 0-1.374 1.374v12.817a1.374 1.374 0 0 0 1.374 1.374h16.478a1.374 1.374 0 0 0 1.374-1.374v-12.817a1.374 1.374 0 0 0-1.374-1.374zm.458 14.191a.459.459 0 0 1-.458.458H674.1a.459.459 0 0 1-.458-.458v-12.817a.456.456 0 0 1 .458-.458h16.478a.457.457 0 0 1 .458.458z" class="prefix__cls-2" data-name="Path 292" transform="translate(-508.506 -516.823)"/>
        <rect id="prefix__Rectangle_78" width="11.234" height="2.324" class="prefix__cls-2" data-name="Rectangle 78" rx="1.162" transform="translate(168.304 85.882)"/>
        <rect id="prefix__Rectangle_79" width="11.234" height="2.324" class="prefix__cls-2" data-name="Rectangle 79" rx="1.162" transform="translate(168.304 89.544)"/>
        <rect id="prefix__Rectangle_80" width="11.234" height="2.324" class="prefix__cls-2" data-name="Rectangle 80" rx="1.162" transform="translate(168.304 93.207)"/>
        <rect id="prefix__Rectangle_81" width="23.805" height="10.071" class="prefix__cls-2" data-name="Rectangle 81" rx="2" transform="translate(87.996 39.433)"/>
        <path id="prefix__Path_293" d="M468.237 478.335c0 1.77-.82 3.2-1.831 3.2s-1.831-1.435-1.831-3.2 1.831-3.2 1.831-3.2 1.831 1.43 1.831 3.2z" class="prefix__cls-4" data-name="Path 293" transform="translate(-366.577 -433.866)"/>
        <path id="prefix__Path_310" d="M77.047 74.848H0V0h.673v74.185h76.374z" class="prefix__cls-1" data-name="Path 310" transform="rotate(180 117.832 37.445)"/>
    </g>
    <path id="prefix__Path_304" d="M137.985 223.8h-.573v-15.689a9.082 9.082 0 0 0-9.082-9.082H95.086A9.082 9.082 0 0 0 86 208.111V294.2a9.082 9.082 0 0 0 9.082 9.082h33.245a9.082 9.082 0 0 0 9.082-9.082v-59.228h.573z" class="prefix__cls-2" data-name="Path 304" transform="translate(123.015 -171.769)"/>
    <path id="prefix__Path_305" fill="#e9e5ff" d="M140.47 214.289v85.96a6.783 6.783 0 0 1-6.782 6.784h-33.4a6.782 6.782 0 0 1-6.788-6.783v-85.961a6.782 6.782 0 0 1 6.781-6.781h4.054a3.222 3.222 0 0 0 2.984 4.438h19.046a3.222 3.222 0 0 0 2.984-4.438h4.339a6.782 6.782 0 0 1 6.781 6.78z" data-name="Path 305" transform="translate(118.023 -177.413)"/>
    <rect id="prefix__Rectangle_97" width="8.949" height="2.652" class="prefix__cls-2" data-name="Rectangle 97" rx="1.326" transform="translate(230.535 80.737)"/>
    <rect id="prefix__Rectangle_98" width="30.586" height="1.137" class="prefix__cls-2" data-name="Rectangle 98" rx=".568" transform="translate(219.717 60.09)"/>
    <rect id="prefix__Rectangle_99" width="30.586" height="1.137" class="prefix__cls-2" data-name="Rectangle 99" rx=".568" transform="translate(219.717 63.689)"/>
    <rect id="prefix__Rectangle_100" width="30.586" height="1.137" class="prefix__cls-2" data-name="Rectangle 100" rx=".568" transform="translate(219.717 67.288)"/>
    <rect id="prefix__Rectangle_101" width="30.586" height="1.137" class="prefix__cls-2" data-name="Rectangle 101" rx=".568" transform="translate(219.717 70.887)"/>
    <rect id="prefix__Rectangle_102" width="30.586" height="1.137" class="prefix__cls-2" data-name="Rectangle 102" rx=".568" transform="translate(219.717 74.486)"/>
    <path id="prefix__Path_307" d="M9.632 0A9.632 9.632 0 1 1 0 9.632 9.632 9.632 0 0 1 9.632 0z" class="prefix__cls-4" data-name="Path 307" transform="translate(230.153 98.712)"/>
    <path id="prefix__Path_306" d="M140.323 415.7a12.077 12.077 0 1 1 12.077-12.072 12.077 12.077 0 0 1-12.077 12.072zm0-23.714a11.637 11.637 0 1 0 11.637 11.637 11.637 11.637 0 0 0-11.637-11.632z" class="prefix__cls-2" data-name="Path 306" transform="translate(94.893 -299.931)"/>
</svg>
