<svg xmlns="http://www.w3.org/2000/svg" id="prefix__Data_Restore_Complete_Image" width="250" height="250" data-name="Data Restore Complete Image" viewBox="0 0 250 250">
    <circle id="prefix__Ellipse_88" cx="98" cy="98" r="98" data-name="Ellipse 88" transform="translate(27 27)" style="opacity:.501;fill:#30d696"/>
    <circle id="prefix__Ellipse_87" cx="62" cy="62" r="62" data-name="Ellipse 87" transform="translate(63 63)" style="fill:#30d696"/>
    <circle id="prefix__Ellipse_89" cx="125" cy="125" r="125" data-name="Ellipse 89" style="opacity:.156;fill:#30d696"/>
    <path id="prefix__Path_304" d="M172.424 240.216h-.952v-26.088a15.1 15.1 0 0 0-15.1-15.1H101.1a15.1 15.1 0 0 0-15.1 15.1v143.12a15.1 15.1 0 0 0 15.1 15.1h55.27a15.1 15.1 0 0 0 15.1-15.1v-98.463h.952z" data-name="Path 304" transform="translate(-4.14 -160.662)" style="fill:#3f3d56"/>
    <path id="prefix__Path_305" d="M171.588 218.781v142.912a11.277 11.277 0 0 1-11.276 11.278h-55.535A11.276 11.276 0 0 1 93.5 361.695V218.781a11.275 11.275 0 0 1 11.273-11.274h6.739a5.356 5.356 0 0 0 4.96 7.379h31.664a5.356 5.356 0 0 0 4.96-7.379h7.214a11.275 11.275 0 0 1 11.274 11.273z" data-name="Path 305" transform="translate(-7.472 -165.211)" style="fill:#394967"/>
    <path id="prefix__Icon_feather-check" d="M28.556 9L13.049 24.508 6 17.459" data-name="Icon feather-check" transform="translate(107.722 108.481)" style="fill:none;stroke:#30d696;stroke-linecap:round;stroke-linejoin:round;stroke-width:3px"/>
</svg>
