<svg xmlns="http://www.w3.org/2000/svg" width="372" height="409" viewBox="0 0 372 409">
    <defs>
        <style type="text/css">
            @font-face {
              font-family: Montserrat;
              src: url("../vendor/fonts/Montserrat/Montserrat-Regular.ttf");
            }
        </style>
        <linearGradient id="prefix__linear-gradient" x1=".52" x2=".5" y1="-.392" y2="1" gradientUnits="objectBoundingBox">
            <stop offset="0" stop-color="#a9e6f9"/>
            <stop offset="1" stop-color="#1d7ee0"/>
        </linearGradient>
        <filter id="prefix__Button" width="372" height="409" x="0" y="0" filterUnits="userSpaceOnUse">
            <feOffset dy="12"/>
            <feGaussianBlur result="blur" stdDeviation="12"/>
            <feFlood flood-color="#1c94e4" flood-opacity=".251"/>
            <feComposite in2="blur" operator="in"/>
            <feComposite in="SourceGraphic"/>
        </filter>
    </defs>
    <g id="prefix__Button-2" data-name="Button" transform="translate(36 24)">
        <g filter="url(#prefix__Button)" transform="translate(-36 -24)">
            <rect id="prefix__Button-3" width="300" height="337" fill="url(#prefix__linear-gradient)" data-name="Button" rx="16" transform="translate(36 24)"/>
        </g>
        <text id="prefix__Restore_from_iCloud" fill="#fff" data-name="Restore from iCloud" font-family="Montserrat-Medium, Montserrat" font-size="16px" font-weight="500" transform="translate(148 203)">
            <tspan x="-53.384" y="0">Restore from</tspan><tspan font-size="34px"><tspan x="-55.675" y="37">iCloud</tspan></tspan>
        </text>
        <g id="prefix__iCloud_Logo" data-name="iCloud Logo" transform="translate(94 92)">
            <path id="prefix__rect955" fill="#fff" d="M62.88.751a29.569 29.569 0 0 0-25.746 15.134 16.16 16.16 0 0 0-23.047 11.987 22.288 22.288 0 0 0 11.439 42.714h62.092q.489.035.979.047.467-.013.933-.047h1.487v-.111a20.854 20.854 0 0 0 18.36-20.731V49.7a20.863 20.863 0 0 0-16.924-20.469A29.569 29.569 0 0 0 62.88.751z" transform="translate(-.378 -.751)"/>
        </g>
    </g>
</svg>
