<svg xmlns="http://www.w3.org/2000/svg" id="Component_182_1" width="300" height="337" data-name="Component 182 – 1" viewBox="0 0 300 337">
    <defs>
        <style type="text/css">
            @font-face {
              font-family: Montserrat;
              src: url("../vendor/fonts/Montserrat/Montserrat-Regular.ttf");
            }
        </style>
        <linearGradient id="linear-gradient" x1=".52" x2=".5" y1="-.392" y2="1" gradientUnits="objectBoundingBox">
            <stop offset="0" stop-color="#a9e6f9"/>
            <stop offset="1" stop-color="#1d7ee0"/>
        </linearGradient>
    </defs>
    <g id="Button">
        <rect id="Button-2" width="300" height="337" fill="url(#linear-gradient)" data-name="Button" rx="16"/>
    </g>
    <g id="Component_180_1" data-name="Component 180 – 1" transform="translate(92 188)">
        <text id="Restore_from_iCloud" fill="#fff" data-name="Restore from iCloud" font-family="Montserrat-Medium, Montserrat" font-size="16px" font-weight="500" transform="translate(56 15)">
            <tspan x="-53.384" y="0">Restore from</tspan><tspan font-size="34px"><tspan x="-55.675" y="37">iCloud</tspan></tspan>
        </text>
    </g>
    <g id="iCloud_Logo" data-name="iCloud Logo" transform="translate(94 92)">
        <path id="rect955" fill="#fff" d="M62.88.751a29.569 29.569 0 0 0-25.746 15.134 16.16 16.16 0 0 0-23.047 11.987 22.288 22.288 0 0 0 11.439 42.714h62.092q.489.035.979.047.467-.013.933-.047h1.487v-.111a20.854 20.854 0 0 0 18.36-20.731V49.7a20.863 20.863 0 0 0-16.924-20.469A29.569 29.569 0 0 0 62.88.751z" transform="translate(-.378 -.751)"/>
    </g>
</svg>
