<svg xmlns="http://www.w3.org/2000/svg" id="prefix__Component_130_1" width="121.394" height="107.105" data-name="Component 130 – 1" viewBox="0 0 121.394 107.105">
    <defs>
        <style type="text/css">
            @font-face {
              font-family: Raleway-Bold;
              src: url("../vendor/fonts/Raleway/Raleway-Bold.ttf");
            }
        </style>
        <linearGradient id="prefix__linear-gradient" x1=".5" x2=".5" y2="1" gradientUnits="objectBoundingBox">
            <stop offset="0" stop-color="#1365d5"/>
            <stop offset="1" stop-color="#00a7ff"/>
        </linearGradient>
        <linearGradient id="prefix__linear-gradient-2" x1=".5" x2=".5" y2="1" gradientUnits="objectBoundingBox">
            <stop offset="0" stop-color="#04c66c"/>
            <stop offset="1" stop-color="#00ff9d"/>
        </linearGradient>
    </defs>
    <text id="prefix__Indacto" fill="#fff" font-family="Raleway-Bold, Raleway" font-size="19px" font-weight="700" letter-spacing="0.025em" transform="translate(24.111 103.105)">
        <tspan x="0" y="0">Indacto</tspan>
    </text>
    <g id="prefix__Group_54" data-name="Group 54" transform="translate(-.485 -.484)">
        <g id="prefix__Exclusion_3" fill="url(#prefix__linear-gradient)" stroke="none" data-name="Exclusion 3">
            <path d="M82.579 77.593c-1.737 0-3.37-.676-4.597-1.904L63.304 61.011l14.504-14.505c3.704-3.703 3.704-9.73 0-13.435L63.304 18.567 77.982 3.888c1.228-1.228 2.86-1.904 4.597-1.904 1.736 0 3.368.676 4.595 1.904l31.305 31.304c2.534 2.535 2.534 6.659 0 9.193L87.174 75.69c-1.227 1.227-2.86 1.903-4.595 1.903zm-42.793 0c-1.737 0-3.369-.676-4.596-1.903L3.885 44.385c-2.534-2.534-2.534-6.658 0-9.193L35.19 3.888c1.227-1.228 2.86-1.904 4.596-1.904 1.736 0 3.368.676 4.596 1.904l14.679 14.679L44.557 33.07c-1.795 1.795-2.783 4.18-2.783 6.718 0 2.537.988 4.923 2.783 6.717L59.06 61.011 44.382 75.69c-1.228 1.227-2.86 1.903-4.596 1.903z"/>
            <path fill="#1b2231" d="M82.578 76.093c1.336 0 2.592-.52 3.536-1.464l31.304-31.305c1.95-1.95 1.95-5.121 0-7.071L86.114 4.949c-.944-.945-2.2-1.465-3.535-1.465s-2.59.52-3.535 1.465L65.425 18.567 78.869 32.01c4.288 4.289 4.288 11.267 0 15.556L65.425 61.01l13.617 13.618c.945.944 2.2 1.464 3.536 1.464m-42.792 0c1.335 0 2.591-.52 3.535-1.464L56.94 61.01 43.496 47.567c-2.078-2.077-3.222-4.84-3.222-7.778 0-2.938 1.144-5.7 3.222-7.779L56.94 18.567 43.32 4.949c-.944-.945-2.2-1.465-3.535-1.465-1.336 0-2.591.52-3.536 1.465L4.946 36.253c-1.95 1.95-1.95 5.122 0 7.071L36.25 74.63c.944.944 2.2 1.464 3.536 1.464m42.792 3c-2.136 0-4.146-.832-5.657-2.343L61.182 61.01l15.566-15.565c3.118-3.118 3.118-8.194 0-11.313L61.182 18.567l15.74-15.74c1.51-1.51 3.52-2.343 5.656-2.343 2.137 0 4.146.833 5.657 2.344l31.305 31.304c3.119 3.12 3.119 8.195 0 11.313L88.235 76.75c-1.51 1.511-3.52 2.343-5.657 2.343zm-42.792 0c-2.137 0-4.146-.832-5.657-2.343L2.824 45.445c-3.119-3.118-3.119-8.194 0-11.313L34.13 2.828c1.51-1.511 3.52-2.344 5.657-2.344 2.136 0 4.146.833 5.657 2.344l15.74 15.739-15.566 15.565c-1.51 1.51-2.343 3.52-2.343 5.657s.832 4.146 2.343 5.656l15.565 15.566-15.74 15.74c-1.51 1.51-3.52 2.342-5.656 2.342z"/>
        </g>
        <path id="prefix__Path_4" fill="url(#prefix__linear-gradient-2)" stroke="#1b2231" stroke-width="2px" d="M737.144 230.774l-11.907 11.863a3.3 3.3 0 0 0 0 4.019c1.569 2.086 11.9 11.979 11.9 11.979l12.043-12.106a3.169 3.169 0 0 0-.152-3.861c-1.611-1.838-11.884-11.894-11.884-11.894z" data-name="Path 4" transform="translate(-675.991 -204.742)"/>
    </g>
</svg>
