<svg xmlns="http://www.w3.org/2000/svg" id="prefix__No_data_Found_Image" width="247.842" height="229" data-name="No data Found Image" viewBox="0 0 247.842 229">
    <defs>
        <style>
            .prefix__cls-1{fill:#63a5ff}.prefix__cls-2{fill:#3f3d56}.prefix__cls-4{opacity:.1}.prefix__cls-5{fill:#a0616a}.prefix__cls-6{fill:#2f2e41}
        </style>
        <style type="text/css">
            @font-face {
              font-family: Montserrat;
              src: url("../vendor/fonts/Montserrat/Montserrat-Regular.ttf");
            }
        </style>
    </defs>
    <g id="prefix__Group_53" data-name="Group 53" transform="translate(0 33.356)">
        <path id="prefix__Path_311" d="M693.692 468.954c0 15.534-9.235 20.957-20.626 20.957s-20.626-5.424-20.626-20.957 20.626-35.3 20.626-35.3 20.626 19.766 20.626 35.3z" class="prefix__cls-1" data-name="Path 311" transform="translate(-516.485 -351.586)"/>
        <path id="prefix__Path_312" d="M651.449 398.536l8.791-16.083-8.758 14.047.1-5.845 6.059-11.636L651.6 389.1l.171-10.513 6.488-9.264-6.461 7.61.107-19.278-.642 24.427-6.57-10.057 6.491 12.118-.615 11.741-.018-.312-7.6-10.625 7.581 11.727-.077 1.468-.014.022.006.12-1.559 15.668h2.083l.25-1.266 7.563-11.7-7.544 10.541z" class="prefix__cls-2" data-name="Path 312" transform="translate(-495.409 -275.587)"/>
        <path id="prefix__Path_313" d="M875.424 143.421c0 29.673-17.64 40.034-39.4 40.034s-39.4-10.361-39.4-40.034S836.024 76 836.024 76s39.4 37.748 39.4 67.421z" data-name="Path 313" transform="translate(-627.582 -75.999)" style="fill:#f2f2f2"/>
        <path id="prefix__Path_314" d="M848.92 102.917l.4-24.834 16.797-30.723-16.73 26.827.182-11.166 11.574-22.228-11.527 19.273.326-20.083 12.394-17.7-12.343 14.542L850.2 0l-1.281 48.75.105-2.011-12.6-19.288 12.4 23.148-1.174 22.429-.035-.6-14.526-20.3 14.483 22.4-.147 2.805-.026.042.012.23-2.979 56.905h3.98l.478-29.393 14.447-22.346z" class="prefix__cls-2" data-name="Path 314" transform="translate(-641.914)"/>
        <path id="prefix__Path_315" d="M306.2 634.487c0 8.857-57.453 42.1-124.616 42.1S59.976 659.38 59.976 650.523s53.11 1.67 120.272 1.67S306.2 625.63 306.2 634.487z" class="prefix__cls-2" data-name="Path 315" transform="translate(-59.976 -504.936)"/>
        <path id="prefix__Path_316" d="M306.2 634.487c0 8.857-57.453 42.1-124.616 42.1S59.976 659.38 59.976 650.523s53.11 1.67 120.272 1.67S306.2 625.63 306.2 634.487z" class="prefix__cls-4" data-name="Path 316" transform="translate(-59.976 -504.936)"/>
        <path id="prefix__Path_317" d="M306.2 631.8c0 8.857-57.453 32.073-124.616 32.073s-121.609-7.18-121.609-16.036 53.11-8.352 120.272-8.352S306.2 622.943 306.2 631.8z" class="prefix__cls-2" data-name="Path 317" transform="translate(-59.976 -502.249)"/>
        <ellipse id="prefix__Ellipse_69" cx="51.641" cy="3.994" class="prefix__cls-4" data-name="Ellipse 69" rx="51.641" ry="3.994" transform="translate(71.328 143.275)"/>
        <path id="prefix__Path_318" d="M414.283 368.965s15.118.28 12.319 2.94-13.3 0-13.3 0z" class="prefix__cls-5" data-name="Path 318" transform="translate(-332.224 -301.737)"/>
        <path id="prefix__Path_319" d="M268.1 227.837s6.1-1.09 8.226 3.838 6.481 18.981 6.481 18.981 11.665 7.721 13.786 7.468 5.749.264 5.083 2.579-.37 4.939-1.9 5.261-3.968-2.749-5.832-1.27-18.479-3.923-19.546-5.043-9.931-25.357-9.931-25.357.357-6.535 3.633-6.457z" class="prefix__cls-1" data-name="Path 319" transform="translate(-217.544 -192.916)"/>
        <path id="prefix__Path_320" d="M248.706 605.607l.7 5.879-5.879 1.54-3.36-1.54v-5.179z" class="prefix__cls-5" data-name="Path 320" transform="translate(-185.055 -466.637)"/>
        <path id="prefix__Path_321" d="M179.772 622.078l.7 5.879-5.879 1.54-3.36-1.54v-5.179z" class="prefix__cls-5" data-name="Path 321" transform="translate(-131.94 -479.328)"/>
        <path id="prefix__Path_322" d="M255.813 396.431l2.66 9.659 3.92 19.6a19.3 19.3 0 0 1-1.12 10.5c-2.24 5.739-6.3 24.5-5.459 25.617s-9.519 1.96-9.379.84 1.54-16.518 1.54-16.518 1.96-13.579 2.94-15.258-4.48-5.879-4.48-5.879-1.4 16.1-3.5 17.5-1.82 23.1-2.8 23.378-8.119 1.4-8.959 0 0-24.777 0-24.777 4.76-17.778 3.78-20.3-.42-13.3-.42-13.3-3.64-8.259-1.68-12.6z" class="prefix__cls-6" data-name="Path 322" transform="translate(-191.602 -321.714)"/>
        <path id="prefix__Path_323" d="M288.14 144.276s-5.879 7.279-5.6 10.5-9.24-5.876-9.24-5.876 6.859-9.239 6.859-11.2 7.981 6.576 7.981 6.576z" class="prefix__cls-5" data-name="Path 323" transform="translate(-224.349 -123.313)"/>
        <circle id="prefix__Ellipse_70" cx="9.239" cy="9.239" r="9.239" class="prefix__cls-5" data-name="Ellipse 70" transform="translate(54.482 5.214)"/>
        <path id="prefix__Path_324" d="M233.128 224.8a16.968 16.968 0 0 0-.864 4.817c.048.964 2.608 1.6 6.148 2.012 3.283.385 7.408.581 11.158.682 3.938.106 7.458.106 9.151.106 5.039 0 .98-3.22-.98-4.76s-1.54-23.378-1.4-26.177-1.26-10.919-1.26-12.459-3.294-5.559-3.294-5.559-.766 2.2-3.845-.741a16.367 16.367 0 0 0-7.139-3.78c-3.08 1.12-8.259 13.439-8.539 15.538-.113.853-.02 5.219.171 10.2.276 7.286.757 15.9 1.089 16.814a6.66 6.66 0 0 1-.396 3.307z" class="prefix__cls-1" data-name="Path 324" transform="translate(-192.691 -155.318)"/>
        <path id="prefix__Path_325" d="M227.756 338.413l.98 3.5-3.78 3.92-1.26-5.46z" class="prefix__cls-5" data-name="Path 325" transform="translate(-172.364 -260.756)"/>
        <path id="prefix__Path_326" d="M295.866 692.056s2.94 3.36 5.179 1.12 2.1-3.64 2.52-3.64 6.719 5.6 6.719 5.6 10.779 2.52 4.9 4.34-22.538.56-22.538 0-.42-7.979 1.12-7.979z" class="prefix__cls-6" data-name="Path 326" transform="translate(-239.215 -548.746)"/>
        <path id="prefix__Path_327" d="M226.933 708.527s2.94 3.36 5.179 1.12 2.1-3.64 2.52-3.64 6.719 5.6 6.719 5.6 10.779 2.52 4.9 4.34-22.538.56-22.538 0-.42-7.979 1.12-7.979z" class="prefix__cls-6" data-name="Path 327" transform="translate(-186.099 -561.437)"/>
        <path id="prefix__Path_328" d="M280.282 100.133c-.3.193-.687.388-.986.2a44.667 44.667 0 0 1-2.479-8.583 4.205 4.205 0 0 1 .253-3.056 7.5 7.5 0 0 0 .717-1.009 6.825 6.825 0 0 0 .169-1.859 3.68 3.68 0 0 1 2.64-2.647 34.754 34.754 0 0 0 3.757-1.154 28.563 28.563 0 0 0 3.053-2.147 3.929 3.929 0 0 1 3.522-.7c1.022.412 1.659 1.454 2.625 1.985a7.658 7.658 0 0 0 2.148.615 13.751 13.751 0 0 1 5.585 2.595 4.056 4.056 0 0 1 1.014 1.047c1.24 2.041-.98 4.816 0 6.995l-2.117-1.671a7.373 7.373 0 0 0-1.891-1.2 2.492 2.492 0 0 0-2.169.1c-.894.555-1.137 1.715-1.449 2.721s-1 2.12-2.055 2.094c-1.431-.035-1.931-2.032-3.215-2.664a2.478 2.478 0 0 0-2.6.46 5.341 5.341 0 0 0-1.456 2.352 6.413 6.413 0 0 1-.729 1.644c-.384.525-.876.567-1.287.959a20.215 20.215 0 0 1-3.05 2.923z" class="prefix__cls-6" data-name="Path 328" transform="translate(-226.934 -78.305)"/>
        <path id="prefix__Path_329" d="M233.866 255.474a65.239 65.239 0 0 0 5.284 6.828c3.283.385 7.408.581 11.158.682a8.841 8.841 0 0 0-2.468-2.273c-1.82-1.12-6.159-14.419-6.159-14.419s5.319-13.719 6.719-18.9-4.06-8.119-4.06-8.119c-2.52-2.1-6.859 2.8-6.859 2.8s-2.215 6.68-4.309 13.283c.276 7.286.757 15.9 1.089 16.814a6.66 6.66 0 0 1-.395 3.304z" class="prefix__cls-4" data-name="Path 329" transform="translate(-193.429 -185.994)"/>
        <path id="prefix__Path_330" d="M230.181 214.395s5.459 2.94 4.06 8.119-6.719 18.9-6.719 18.9 4.34 13.3 6.159 14.419 4.34 3.78 2.38 5.179-3.36 3.64-4.76 2.94-1.4-4.62-3.78-4.62-12.039-14.559-12.179-16.1 7.979-26.037 7.979-26.037 4.34-4.895 6.86-2.8z" class="prefix__cls-1" data-name="Path 330" transform="translate(-179.688 -182.234)"/>
        <path id="prefix__Path_332" d="M429.643 586.064l29.639-29.639-.285-.285-28.264 28.26a4.878 4.878 0 0 0-1.09 1.664z" class="prefix__cls-4" data-name="Path 332" transform="translate(-344.814 -445.96)"/>
        <path id="prefix__Path_333" d="M430.31 373.779a4.9 4.9 0 0 1 6.927 0l30.546 30.546 30.546-30.546a4.9 4.9 0 0 1 6.927 0l1.575 1.575a4.9 4.9 0 0 1 1.09 5.266l.907-.907a4.9 4.9 0 0 0 0-6.927l-1.575-1.575a4.9 4.9 0 0 0-6.927 0l-30.546 30.546-30.546-30.546a4.9 4.9 0 0 0-6.927 0l-1.575 1.575a4.879 4.879 0 0 0-1.09 1.661z" class="prefix__cls-4" data-name="Path 333" transform="translate(-344.814 -302.362)"/>
        <path id="prefix__Path_334" d="M635.185 547.436l-2.282 2.282 30.546 30.546a4.9 4.9 0 0 1 1.09 5.266l.907-.907a4.9 4.9 0 0 0 0-6.927z" class="prefix__cls-4" data-name="Path 334" transform="translate(-501.432 -439.254)"/>
        <path id="prefix__Path_335" d="M99.933 537.761c0 12.9-7.67 17.406-17.131 17.406s-17.131-4.5-17.131-17.406S82.8 508.447 82.8 508.447s17.133 16.412 17.133 29.314z" data-name="Path 335" transform="translate(-64.365 -409.212)" style="fill:#f5f5f5"/>
        <path id="prefix__Path_336" d="M54.685 466.4l7.3-13.358-7.272 11.658.079-4.855 5.032-9.664-5.011 8.379.142-8.732 5.388-7.694-5.366 6.321.089-16.011-.533 20.288-5.457-8.352 5.391 10.064-.51 9.752-.015-.259-6.316-8.825 6.3 9.739-.064 1.22-.011.018.005.1-1.3 13.013h1.73l.208-1.051 6.281-9.715-6.266 8.755z" class="prefix__cls-2" data-name="Path 336" transform="translate(-36.696 -333.213)"/>
    </g>
    <text id="prefix___" data-name="?" transform="translate(126 181)" style="fill:#fc6161;font-size:189px;font-family:ProductSans-Bold,Product Sans;font-weight:700">
        <tspan x="-48.573" y="0">?</tspan>
    </text>
</svg>
