<svg xmlns="http://www.w3.org/2000/svg" id="prefix__Payment_failed_Image" width="250.93" height="253.422" data-name="Payment failed Image" viewBox="0 0 250.93 253.422">
    <defs>
        <style>
            .prefix__cls-1{fill:#fc6161}.prefix__cls-3{fill:#e6e6e6}.prefix__cls-5{fill:#6c63ff}.prefix__cls-13,.prefix__cls-6{opacity:.1}.prefix__cls-7{fill:#d0cde1}.prefix__cls-10{fill:#fbbebe}.prefix__cls-11{fill:#2f2e41}.prefix__cls-14{fill:#3a3768}.prefix__cls-15{opacity:.2}.prefix__cls-16{fill:#fff}
        </style>
    </defs>
    <path id="prefix__Icon_material-error-outline" d="M45.834 64.872h9.519v9.519h-9.519zm0-38.075h9.519v28.556h-9.519zM50.546 3a47.594 47.594 0 1 0 47.642 47.594A47.57 47.57 0 0 0 50.546 3zm.048 85.669a38.075 38.075 0 1 1 38.075-38.075 38.065 38.065 0 0 1-38.075 38.075z" class="prefix__cls-1" data-name="Icon material-error-outline" transform="translate(-3 -3)"/>
    <g id="prefix__Group_9" data-name="Group 9" transform="translate(-344.107 -85.044)">
        <path id="prefix__Path_2" d="M438.7 665.265s-10.39-18.412-26.049-23.718c-6.571-2.226-9.355-3.455-13.277-9.179" data-name="Path 2" transform="translate(-3.503 -342.293)" style="stroke:#e6e6e6;fill:none;stroke-miterlimit:10;stroke-width:2px"/>
        <path id="prefix__Path_5" d="M408.311 689.152c2.349-.813 7.68-7.425 7.68-7.425s-8.283-1.9-10.632-1.082a4.5 4.5 0 0 0 2.935 8.507z" class="prefix__cls-3" data-name="Path 5" transform="translate(-8.216 -382.977)"/>
        <path id="prefix__Path_6" d="M479.919 729.676c2.452-.4 8.832-6.017 8.832-6.017s-7.845-3.268-10.3-2.864a4.5 4.5 0 0 0 1.466 8.883z" class="prefix__cls-3" data-name="Path 6" transform="translate(-64.125 -414.187)"/>
        <path id="prefix__Path_7" d="M9 4.5c0 2.484-4.5 9.7-4.5 9.7S0 6.987 0 4.5a4.5 4.5 0 1 1 9 0z" class="prefix__cls-3" data-name="Path 7" transform="rotate(-54.975 469.377 -224.948)"/>
        <path id="prefix__Path_17" d="M500.717 599.762s-2.465-25.525-17.224-39.1a38.806 38.806 0 0 1-12.027-21.435 65.232 65.232 0 0 1-1.077-11.9" data-name="Path 17" transform="translate(-66.251 -277.234)" style="stroke:#535461;fill:none;stroke-miterlimit:10;stroke-width:2px"/>
        <path id="prefix__Path_18" d="M435.569 476c1.126 2.8 9.457 8.866 9.457 8.866s1.795-10.15.668-12.948A5.464 5.464 0 1 0 435.558 476z" class="prefix__cls-5" data-name="Path 18" transform="translate(-40.674 -234.521)"/>
        <path id="prefix__Path_19" d="M422.732 538.432c2.466 1.734 12.759 2.3 12.759 2.3s-4.008-9.5-6.474-11.232a5.46 5.46 0 1 0-6.285 8.929z" class="prefix__cls-5" data-name="Path 19" transform="translate(-29.967 -278.094)"/>
        <path id="prefix__Path_20" d="M455.836 631.931c3.014.252 12.175-4.455 12.175-4.455s-8.255-6.181-11.26-6.424a5.459 5.459 0 1 0-.915 10.88z" class="prefix__cls-5" data-name="Path 20" transform="translate(-52.034 -345.27)"/>
        <path id="prefix__Path_21" d="M505.165 698.183c2.92.756 12.753-2.334 12.753-2.334s-7.093-7.479-10.011-8.235a5.46 5.46 0 1 0-2.74 10.57z" class="prefix__cls-5" data-name="Path 21" transform="translate(-88.531 -393.484)"/>
        <path id="prefix__Path_22" d="M487.307 539.141c-1.222 2.759-9.753 8.542-9.753 8.542s-1.452-10.205-.233-12.961a5.46 5.46 0 1 1 9.986 4.419z" class="prefix__cls-5" data-name="Path 22" transform="translate(-70.929 -280.247)"/>
        <path id="prefix__Path_23" d="M537.43 613.154c-1.989 2.266-11.86 5.234-11.86 5.234s1.668-10.172 3.657-12.435a5.458 5.458 0 1 1 8.2 7.2z" class="prefix__cls-5" data-name="Path 23" transform="translate(-106.314 -332.975)"/>
        <path id="prefix__Path_24" d="M582.16 697.8c-1.589 2.57-10.807 7.164-10.807 7.164s-.077-10.307 1.5-12.876a5.464 5.464 0 1 1 9.315 5.715z" class="prefix__cls-5" data-name="Path 24" transform="translate(-139.554 -394.97)"/>
        <ellipse id="prefix__Ellipse_1" cx="114.939" cy="7.526" class="prefix__cls-3" data-name="Ellipse 1" rx="114.939" ry="7.526" transform="translate(365.054 323.414)"/>
        <path id="prefix__Path_79" d="M1015.32 298.567s9.678-3.1 10.668 0z" class="prefix__cls-6" data-name="Path 79" transform="translate(-447.142 -140.402)"/>
        <g id="prefix__Group_8" data-name="Group 8" transform="translate(468.845 89.714)">
            <path id="prefix__Path_26" d="M695.55 287.424s2.187-11.475 9.229-11.534l5.144 10.589-3.43 2.366s-7.454.237-10.943-1.421z" class="prefix__cls-7" data-name="Path 26" transform="translate(-681.17 -207.33)"/>
            <path id="prefix__Path_27" d="M709.922 286.5l-3.43 2.369a40.56 40.56 0 0 1-9-.757 10.376 10.376 0 0 1-1.947-.665.678.678 0 0 1 .04-.185.365.365 0 0 1 0-.043 25.963 25.963 0 0 1 1.336-4.219c.215-.514.462-1.046.726-1.575a10.765 10.765 0 0 1 4.461-4.892 6.092 6.092 0 0 1 2.347-.615h.314l.111.234 1.742 3.578z" data-name="Path 27" transform="translate(-681.169 -207.35)" style="opacity:.502"/>
            <path id="prefix__Path_28" d="M920.134 391.43s7.384-.71 8.045-.178 4.852 3.255 7.334 1.538.827-7.691.827-7.928-.234-8.694-.234-8.694l-4.439-5.975-5.559-10.46-11.358-1.123.308 16.613-.058 8.519z" class="prefix__cls-7" data-name="Path 28" transform="translate(-832.934 -264.602)"/>
            <path id="prefix__Path_29" d="M920.134 391.43s7.384-.71 8.045-.178 4.852 3.255 7.334 1.538.827-7.691.827-7.928-.234-8.694-.234-8.694l-4.439-5.975-5.559-10.46-11.358-1.123.308 16.613-.058 8.519z" data-name="Path 29" transform="translate(-832.934 -264.602)" style="opacity:.503"/>
            <path id="prefix__Path_30" d="M682.795 250.424s-.588 7.217-5.085 7.334c0 0-1.274-.769-2.987-2.049-3.95-2.956-10.22-8.639-8.488-13.924 2.486-7.571 14.552 6.39 14.552 6.39l.923 1.04z" class="prefix__cls-10" data-name="Path 30" transform="translate(-660.668 -182.16)"/>
            <path id="prefix__Path_31" d="M701.7 272.21s-.588 7.217-5.086 7.334c0 0-1.274-.769-2.987-2.049l-.387-.495a5.873 5.873 0 0 0 2.461.661 3.325 3.325 0 0 0 3.215-2.024 25.781 25.781 0 0 0 1.231-2.864A8.452 8.452 0 0 0 700.6 271z" class="prefix__cls-6" data-name="Path 31" transform="translate(-679.57 -203.946)"/>
            <path id="prefix__Path_32" d="M700.521 283.925l-1.012-1.3-3.415-4.384-1.735-2.241a5.845 5.845 0 0 0 2.461.665 3.331 3.331 0 0 0 3.218-2.027 25.658 25.658 0 0 0 1.231-2.864c.563-1.6.551-2.419.355-2.695a18.407 18.407 0 0 1 1.954 1.735l.024.025c.2.185.329.308.329.308l.12.24 1.714 3.427.018.145c.156 1.087.734 7.988-5.262 8.966z" class="prefix__cls-3" data-name="Path 32" transform="translate(-680.345 -202.589)"/>
            <path id="prefix__Path_33" d="M755.472 791.063s-4.968 3.255-7.452 2.769a8.816 8.816 0 0 0-5.03.831 14.97 14.97 0 0 1-6.273 4.083c-4.021 1.36-9.638.827-12.832-.24-1.514-.5-1.634-1.153-.907-1.953a25.274 25.274 0 0 1 4.812-3.252 46.32 46.32 0 0 0 8.457-7.218 2.567 2.567 0 0 1 .769-1.714 9.18 9.18 0 0 0 1.194-1.231c.634-.751 1.231-1.538 1.231-1.538l14.613.474s.249 1.055.443 2.132a7.587 7.587 0 0 1 .206 2.129 1.923 1.923 0 0 0 .415 1.477l.262 2.415z" class="prefix__cls-11" data-name="Path 33" transform="translate(-699.86 -557.461)"/>
            <path id="prefix__Path_34" d="M895.585 797.635c-.176.707-.387 1.978-.484 2.575-.032.2-.049.326-.049.326s-1.185 2.6-7.749 3.55-6.565-2.19-6.565-2.19.025-.338.068-.846c.114-1.385.351-4.032.523-4.6a20.929 20.929 0 0 0-.176-4.141l-.071-3.526-.049-2.461 10.887-1.126a20.818 20.818 0 0 0 .351 2.424 3.077 3.077 0 0 0 .477 1.231c.591.655.947 3.55.947 3.55s2.12 4.287 1.89 5.234z" class="prefix__cls-11" data-name="Path 34" transform="translate(-809.385 -559.954)"/>
            <path id="prefix__Path_35" d="M789.18 782.057s.249 1.055.443 2.132c-1.578.29-8.479 1.486-10.2.649a26.994 26.994 0 0 0-6.153-1.48l.071-.24c.634-.751 1.231-1.538 1.231-1.538z" class="prefix__cls-6" data-name="Path 35" transform="translate(-734.976 -557.448)"/>
            <path id="prefix__Path_36" d="M892.915 787.636c-2.769-.468-8.8.664-11.186 1.151l-.049-2.461 10.885-1.126a20.829 20.829 0 0 0 .35 2.436z" class="prefix__cls-6" data-name="Path 36" transform="translate(-810.038 -559.954)"/>
            <path id="prefix__Path_37" d="M821.614 420.983l-.237 8.34s.308 12.718-.591 14.73-.889 10.115-.889 10.115.594 3.845-.058 4.67-.178 3.907.308 5.5.055 5.562.055 5.562l-.117 22.359s-.649 5.8-1.48 6.627a1.938 1.938 0 0 0-.471 1.892 20.034 20.034 0 0 0-.532 3.9 1.96 1.96 0 0 1-.827 2.6c-1.36.649-1.009 2.723-1.009 2.723-3.252-.769-12.478 1.3-12.478 1.3a53.975 53.975 0 0 1-2.606-6.331 3.267 3.267 0 0 1 2.366-4.307c1.24-.166-.886-2.369-.886-2.369s.237-.308-.355-2.424.117-7.574.308-8.992 1.065-8.282 1.065-8.282-.471-8.694-.117-9.051 1.538-3.787.947-4.922-1.538-8.519-1.538-8.922-.769-10-.769-10a80.792 80.792 0 0 1-.532-8.1 53.1 53.1 0 0 0-.474-6.682c0-4.381-2.541-9.112-2.541-9.112l-.065.169-5.5 14.459s-.886 4.375-1.658 6.86a44.944 44.944 0 0 0-1.154 5.135l-.052.308c-.022.132-.04.246-.052.332l-.037.24s.412 3.135-.237 4.141a14.8 14.8 0 0 0-1.387 4.861c0 .84.055 4.027.055 4.027s.24 6.328-.412 7.039a1.117 1.117 0 0 0-.308 1.3s1.067 4.79.594 6.032a12.449 12.449 0 0 0-.117 4.138s-.938 9.149-1.043 9.629-.769 4.141-.062 4.436a9.536 9.536 0 0 1 2.07 2.07s.308 7.75-.766 8.34-.477 3.609-.477 3.609-8.574 1.658-10.527.71a26.974 26.974 0 0 0-6.153-1.48l.588-1.944c-.032.068-.425.7-.7-1.723-.308-2.544 2.19-1.3 2.19-1.3s1.95.474-1.187-2.6-1.6-6.211-1.419-6.211a39.954 39.954 0 0 0 .591-4.553 15.131 15.131 0 0 0 .117-4.852c-.415-2.129-.766-8.756-.766-8.756s.308-5.027-.237-6.86.355-5.147.532-5.919-.532-7.806-.532-7.806a21.765 21.765 0 0 0 .237-5.735c-.357-2.424.357-11.358.357-11.358l1.064-10.294a21.831 21.831 0 0 0 .649-4.495 36.581 36.581 0 0 1 .886-5.845 6.433 6.433 0 0 1 .474-2.839c.591-1.181.831-5.086.831-5.086l5.679-13.017 2.769-11.475 37.563-.355s.138.994.363 2.8.551 4.488.923 7.793c.326 3 .683 6.534 1.032 10.46 1.107 12.542-1.258 14.791-1.258 14.791z" class="prefix__cls-11" data-name="Path 37" transform="translate(-732.58 -282.976)"/>
            <path id="prefix__Path_38" d="M881.873 143.182l-8.759 9.349s-11.235-4.5-10.054-6.036c.458-.6.385-2.461.12-4.548-.415-3.273-1.3-7.048-1.3-7.048s19.637-3.194 17.979.117a5.372 5.372 0 0 0-.123 3.929 14.766 14.766 0 0 0 2.138 4.236z" class="prefix__cls-10" data-name="Path 38" transform="translate(-796.328 -108.755)"/>
            <path id="prefix__Path_39" d="M879.859 135.019c-.615 1.212-.892 1.329-.514 2.634-2.569 2.769-5.845 5.768-9.894 5.768a14.007 14.007 0 0 1-6.27-1.471c-.415-3.273-1.3-7.048-1.3-7.048s19.636-3.193 17.978.117z" class="prefix__cls-6" data-name="Path 39" transform="translate(-796.329 -108.758)"/>
            <path id="prefix__Path_40" d="M868.872 86.879a14.081 14.081 0 0 1-28.161 0v-.2a14.078 14.078 0 1 1 28.156.2z" class="prefix__cls-10" data-name="Path 40" transform="translate(-781.673 -66.65)"/>
            <path id="prefix__Path_41" d="M849.759 403.173c-1.864.016-8.076.068-15.016.178h-.083l-2.294.039h-.071c-8.229.132-16.339-1.477-19.594-1.169-6.922.649 2.484-6.39 2.484-6.39a57.846 57.846 0 0 0 15.767 1.594l1.99-.1c6.29-.357 12.613-.947 15.911-1.938.229 1.824.547 4.494.906 7.786z" class="prefix__cls-6" data-name="Path 41" transform="translate(-760.519 -290.063)"/>
            <path id="prefix__Path_42" d="M849.756 402.012c-1.864 0-8.075.068-15.016.176h-.083l-2.3.04h-.071c-8.229.132-16.339-1.477-19.594-1.172-6.922.649 2.484-6.387 2.484-6.387a57.988 57.988 0 0 0 15.767 1.594l1.99-.1c6.29-.355 12.613-.947 15.911-1.938.235 1.822.556 4.483.912 7.787z" data-name="Path 42" transform="translate(-760.517 -289.256)" style="fill:#7c5c5c"/>
            <path id="prefix__Path_43" d="M830.783 172.839l-10.883 5.088-8.4 64.95s4.968-2.246 7.806-.827 11.592.12 11.592.12 6.39-.357 7.337.355 12.065-2.956 12.065-2.956 2.012-4.5.474-5.205.474-7.691.474-7.691l-.947-46.851-1.892-6.032-5.086-3.078-5.212 4.141-2.461.355z" class="prefix__cls-6" data-name="Path 43" transform="translate(-761.448 -134.508)"/>
            <path id="prefix__Path_44" d="M830.783 170.522l-10.883 5.089-8.4 64.956s4.968-2.249 7.806-.827 11.592.117 11.592.117 6.39-.355 7.337.355 12.065-2.957 12.065-2.957 2.012-4.495.474-5.205.474-7.691.474-7.691L850.3 177.5l-1.892-6.032-5.086-3.078-5.212 4.144-2.461.351z" class="prefix__cls-3" data-name="Path 44" transform="translate(-761.448 -132.902)"/>
            <path id="prefix__Path_45" d="M854.565 182.975s3.135 3.725 3.077 4.495-.176 2.6-.176 2.6l-2.369 4.793s-1.3 5.975-1.3 7.217-2.07 12-2.07 12l-2.484 16.564-3.135 21.71 3.194 5.5 3.787-3.194 5.027-38.689 1.064-7.63s1.12-13.722 1.12-15.141a48.49 48.49 0 0 0-.649-5.147s.769-3.55 3.963-4.378-.237-.178-.237-.178l-1.846-1.48-1.6.652s-4.418-1.349-5.366.306z" class="prefix__cls-6" data-name="Path 45" transform="translate(-785.409 -142.338)"/>
            <path id="prefix__Path_46" d="M853.445 181.854s3.135 3.726 3.076 4.495-.178 2.6-.178 2.6l-2.366 4.793s-1.286 5.968-1.286 7.208-2.07 12-2.07 12l-2.5 16.588-3.12 21.7 3.2 5.5 3.769-3.2 5.03-38.683 1.064-7.63s1.123-13.724 1.123-15.145a48.384 48.384 0 0 0-.649-5.147s.769-3.548 3.963-4.378-.237-.175-.237-.175l-1.846-1.48-1.572.645s-4.454-1.355-5.401.309z" class="prefix__cls-11" data-name="Path 46" transform="translate(-784.642 -141.563)"/>
            <path id="prefix__Path_47" d="M860.4 163.79s-.474.355-.591 2.72a47.354 47.354 0 0 1-1.774 7.691s6.153-4.261 9.229-3.787z" class="prefix__cls-6" data-name="Path 47" transform="translate(-793.665 -129.717)"/>
            <path id="prefix__Path_48" d="M860.4 161.48s-.474.355-.591 2.723a47.274 47.274 0 0 1-1.774 7.691s6.153-4.258 9.229-3.784z" class="prefix__cls-3" data-name="Path 48" transform="translate(-793.665 -128.118)"/>
            <path id="prefix__Path_49" d="M898.493 157.63l-9.7 8.519s8.165 4.852 9.229 6.036 2.129-11.6 2.129-11.6z" class="prefix__cls-6" data-name="Path 49" transform="translate(-814.96 -125.452)"/>
            <path id="prefix__Path_50" d="M899.685 155.33L890 163.843s8.161 4.848 9.229 6.032 2.132-11.6 2.132-11.6z" class="prefix__cls-3" data-name="Path 50" transform="translate(-815.798 -123.86)"/>
            <path id="prefix__Path_51" d="M803.315 163.59s-1.065-.532-2.07 1.006a6.671 6.671 0 0 1-2.9 2.246s-10.767 1.717-11.18 3.135l-5.027.308s-1.774.234-1.954 3.963-1.135 4.073-1.135 4.073-2.07 3.667-1.9 5.559a3.108 3.108 0 0 1-1.6 2.839l7.384 19.226s.237 7.928-1.126 10.826-3.9 15.736-3.9 15.736 1.068-.237 1.006.471-1.3 8.46-1.3 8.46a17.094 17.094 0 0 1-.945 4.141c-.59 1.065-.652 6.627-.652 6.627l-.947 4.021s2.249 5.03 5.679 4.307 9.682-14.121 9.682-14.121l3.963-14.493 3.076-14.315.886-9.7 1.421-21.474 2.07-14.2s2.299-7.631 1.469-8.641z" class="prefix__cls-6" data-name="Path 51" transform="translate(-736.228 -129.517)"/>
            <path id="prefix__Path_52" d="M802.217 161.28s-1.064-.532-2.07 1.006a6.688 6.688 0 0 1-2.9 2.249s-10.768 1.714-11.18 3.135l-5.03.308s-1.774.237-1.95 3.963-1.126 4.082-1.126 4.082-2.07 3.667-1.892 5.559a3.1 3.1 0 0 1-1.6 2.839l7.384 19.226s.237 7.928-1.123 10.826-3.9 15.736-3.9 15.736 1.065-.237 1.006.474-1.3 8.457-1.3 8.457a17 17 0 0 1-.947 4.141c-.593 1.065-.649 6.627-.649 6.627l-.94 4.008s2.249 5.03 5.679 4.307 9.642-14.136 9.642-14.136l3.965-14.493 3.076-14.318.889-9.7 1.419-21.474 2.07-14.2s2.305-7.616 1.477-8.622z" class="prefix__cls-11" data-name="Path 52" transform="translate(-735.485 -127.918)"/>
            <path id="prefix__Path_53" d="M709.148 285.676l-3.43 2.37a40.558 40.558 0 0 1-9-.757l-1.907-.849-.385-.166.394.123a7.811 7.811 0 0 0 4.734.169c4.855-1.634 4.307-9.651 4.132-11.466-.018-.182-.032-.308-.04-.344a.107.107 0 0 1 0-.022l.028.046a2.18 2.18 0 0 0 .226.308c.068.077.138.157.215.231l1.714 3.427.018.145z" class="prefix__cls-6" data-name="Path 53" transform="translate(-680.394 -206.53)"/>
            <path id="prefix__Path_54" d="M721.814 235.12l-1.655.474-.237 3.384a2.261 2.261 0 0 0-2.486 2.012 8.128 8.128 0 0 1-1.477 3.384s-3.255 2.723-3.433 5.027l-2.009 1.231s-4.677-1.089-5.737-2.968c0 0 2.129 15.262-9.229 11.534 0 0 12.718 5.562 13.309 6.331s4.5 3.015 8.045 1.123a8.559 8.559 0 0 0 4.319-4.8s3.43-4.793 3.55-5.5 2.769-1.538 2.769-1.538l5.089-12.307z" class="prefix__cls-11" data-name="Path 54" transform="translate(-681.17 -179.103)"/>
            <path id="prefix__Path_55" d="M913.217 163.142l1.714-7.807s.769 2.544 1.538 3.135l2.544 1.95a14.781 14.781 0 0 0 3.43 1.185c.886 0 5.679 1.231 6.27 1.892s2.96.178 2.96.178 1.95.649 3.667 1.065 2.544 3.255 2.188 4.378a3.412 3.412 0 0 0 .831 3.194c.708.71 1.065 3.018 1.065 3.018a3.461 3.461 0 0 1 2.009 1.714 11.873 11.873 0 0 1 .416 4.141l-8.814 12.423s.117 4.793-.237 5.845 1.231 19.166 1.231 19.166l1.846 31.115a32.955 32.955 0 0 1-2.956 2.307c-.532.237-1.067-11-1.067-11.416s-13.662-20.468-13.662-20.468-1.846-2.959-1.846-3.609-1.717-6.627-1.717-6.627l-2.6-11.535z" class="prefix__cls-6" data-name="Path 55" transform="translate(-831.044 -123.863)"/>
            <path id="prefix__Path_56" d="M944.2 180.458c0 .406-.022.677-.022.677l-8.807 12.413s.123 4.79-.234 5.845c-.206.615.246 6.984.664 12.21.308 3.774.578 6.956.578 6.956l.778 13.2 1.052 17.917a32.949 32.949 0 0 1-2.956 2.307c-.532.237-1.065-11-1.065-11.419S920.527 220.1 920.527 220.1s-1.846-2.959-1.846-3.609-1.714-6.627-1.714-6.627l-2.6-11.537 1.181-35.253 1.006-7.806a17.064 17.064 0 0 0 2.246 3.132c.769.588 2.541 1.954 2.541 1.954a14.764 14.764 0 0 0 3.433 1.185c.889 0 5.679 1.231 6.27 1.892s2.96.178 2.96.178 1.95.649 3.664 1.065 2.544 3.255 2.19 4.375a3.412 3.412 0 0 0 .827 3.2c.71.71 1.065 3.015 1.065 3.015a3.473 3.473 0 0 1 2.012 1.72 9.7 9.7 0 0 1 .438 3.474z" class="prefix__cls-11" data-name="Path 56" transform="translate(-832.667 -123.816)"/>
            <path id="prefix__Path_57" d="M776.31 749.48c.308 0 12.718.474 12.481 2.486s-12.481-2.486-12.481-2.486z" class="prefix__cls-6" data-name="Path 57" transform="translate(-737.084 -535.223)"/>
            <path id="prefix__Path_58" d="M785.35 760.44s8.34 1.36 6.153 2.6-6.153-2.6-6.153-2.6z" class="prefix__cls-6" data-name="Path 58" transform="translate(-743.343 -542.811)"/>
            <path id="prefix__Path_59" d="M886.1 745.25s13.844 1.185 11.774 2.72-6.98 1.774-7.217 1.846-4.557-4.566-4.557-4.566z" class="prefix__cls-6" data-name="Path 59" transform="translate(-813.098 -532.294)"/>
            <path id="prefix__Path_60" d="M880.72 765.06s7.691 1.3 7.925 2.769-7.925-2.769-7.925-2.769z" class="prefix__cls-6" data-name="Path 60" transform="translate(-809.373 -546.01)"/>
            <path id="prefix__Path_61" d="M894.56 649.3s7.039 1.655 7.454 2.769z" class="prefix__cls-6" data-name="Path 61" transform="translate(-818.955 -465.863)"/>
            <path id="prefix__Path_62" d="M802.553 665.84s-3.667 1.064-.117 3.194.117-3.194.117-3.194z" class="prefix__cls-6" data-name="Path 62" transform="translate(-754.101 -477.314)"/>
            <path id="prefix__Path_63" d="M859.18 477.845c.415 0 6.864-2.129 9.109-1.181a14.954 14.954 0 0 0 5.03.945z" class="prefix__cls-6" data-name="Path 63" transform="translate(-794.46 -346.169)"/>
            <path id="prefix__Path_64" d="M843.036 495.716l-.065.585-5.5 14.459s-.886 4.375-1.658 6.86a44.947 44.947 0 0 0-1.154 5.135l4.883-30.275z" class="prefix__cls-6" data-name="Path 64" transform="translate(-777.484 -357.288)"/>
            <path id="prefix__Path_65" d="M881.45 406.549l-2.3.04h-.071l-1.344-5.962c.661-.032 1.323-.068 1.99-.108z" class="prefix__cls-11" data-name="Path 65" transform="translate(-807.31 -293.618)"/>
            <path id="prefix__Path_66" d="M926.893 383.868l-1.474 1.212-4.921 4.046s-13.312 7.1-16.979.357c-3.233-5.941 11.86-10.183 15.493-11.109.5-.126.774-.188.774-.188z" class="prefix__cls-10" data-name="Path 66" transform="translate(-824.846 -278.155)"/>
            <path id="prefix__Path_67" d="M795.73 207.63s2.6 1.181 3.194 2.839-3.194-2.839-3.194-2.839z" class="prefix__cls-6" data-name="Path 67" transform="translate(-750.53 -160.07)"/>
            <path id="prefix__Path_68" d="M763.692 265.31s-3.787 4.615-2.249 6.39 2.249-6.39 2.249-6.39z" class="prefix__cls-6" data-name="Path 68" transform="translate(-726.536 -200.005)"/>
            <path id="prefix__Path_69" d="M981.3 216.09s-3.55.355-3.667 3.43z" class="prefix__cls-6" data-name="Path 69" transform="translate(-876.47 -165.928)"/>
            <path id="prefix__Path_70" d="M882.64 348.049c.355-.355 8.519-12.423 10.411-11.358z" class="prefix__cls-6" data-name="Path 70" transform="translate(-810.702 -249.38)"/>
            <path id="prefix__Path_71" d="M868.888 86.851a14.03 14.03 0 0 1-1.664 6.645l-.1-.018c-.892-.188-1.357-1.231-2.04-1.877a2.769 2.769 0 0 0-3.194-.449 3.249 3.249 0 0 0-1.569 3.036c-.449-1.9-.308-3.91-.748-5.808s-1.766-3.818-3.578-3.852c-.781 0-1.7.29-2.258-.308-.342-.355-.412-.923-.668-1.338-1.3-2.1-5.23-1.037-6.848.037-1.557 1.032-3.484 2.794-5.484 3.716a14.078 14.078 0 0 1 28.156.2z" class="prefix__cls-6" data-name="Path 71" transform="translate(-781.688 -66.622)"/>
            <path id="prefix__Path_72" d="M845.017 68.951c.258.428.326.987.668 1.338.563.585 1.477.286 2.258.308 1.812.032 3.138 1.954 3.578 3.852s.308 3.91.747 5.806a3.243 3.243 0 0 1 1.572-3.032 2.769 2.769 0 0 1 3.19.446c.683.649 1.147 1.689 2.04 1.877s1.754-.668 2.074-1.609a24.654 24.654 0 0 0 .511-2.947c.4-1.846 1.606-3.355 2.273-5.11a9.266 9.266 0 0 0-.062-6.608c-.443-1.111-1.1-2.11-1.538-3.221-.683-1.686-4.47-3.956-5.3-5.562-1.394-2.689-.5-1.012-3.19 0-1.286.484-2.972-1.237-4.276-.809-1.751.56-3.618.138-5.43-.114s-3.809-.277-5.264.923c-1.674 1.369-2.132 3.944-3.692 5.448-.661.631-1.484 1.032-2.181 1.618a3.025 3.025 0 0 0-1.231 2.4c.1 1.231 1.3 2.338.861 3.473a2.811 2.811 0 0 1-.655.865 12.322 12.322 0 0 0-2.864 4.873c3.165.987 6.593-2.5 9.069-4.15 1.606-1.099 5.547-2.148 6.842-.065z" class="prefix__cls-11" data-name="Path 72" transform="translate(-773.639 -53.036)"/>
            <path id="prefix__Path_73" d="M962.273 383.874l-1.474 1.212c-1.3-2.154-6.63-6.482-6.63-6.482l.231-.222c.5-.126.774-.188.774-.188z" class="prefix__cls-6" data-name="Path 73" transform="translate(-860.226 -278.162)"/>
            <path id="prefix__Path_74" d="M964.5 377.431s-.529 1.317-1.077 2.461-1.141 2.172-1.172 1.332c-.058-1.658-6.919-7.22-6.919-7.22l.923-.9 1.08-1.046z" class="prefix__cls-3" data-name="Path 74" transform="translate(-861.03 -273.911)"/>
            <path id="prefix__Path_75" d="M964.857 345.412l.778 13.2c-1.846-2.858-6.882-10.183-10.129-9.946l7.871-9.048a10.586 10.586 0 0 0 .9-1.161c.303 3.774.58 6.955.58 6.955z" class="prefix__cls-6" data-name="Path 75" transform="translate(-861.151 -250.648)"/>
            <path id="prefix__Path_76" d="M966.59 377.428s-.529 1.317-1.077 2.461c-2.061-2.827-4.9-6.168-7.161-6.793l1.08-1.046z" class="prefix__cls-6" data-name="Path 76" transform="translate(-863.122 -273.908)"/>
            <path id="prefix__Path_77" d="M971.34 234l2.129 1.655s3.548.062 3.9 3.018 3.609 4.307 3.609 4.307 2.424 2.424 2.424 3.548 1.846 3.138 1.846 3.313 1.774 3.787 1.538 4.436 1.892 3.492 1.231 4.556a26.091 26.091 0 0 0-1.421 2.956s-2.769 5.325-4.2 6.331-7.925 9.463-7.925 9.463-6.98 8.045-6.98 10.531c0 0-6.806-11.358-10.826-11.075l7.866-9.051s1.363-1.477 1.421-2.366 3.784-4.968 5.559-5.147c0 0 .308-2.424-.474-2.484s-1.419-1.954-1.419-1.954-5.205-6.153-5.264-10.057S971.34 234 971.34 234z" class="prefix__cls-11" data-name="Path 77" transform="translate(-861.956 -178.328)"/>
            <path id="prefix__Path_78" d="M1005.427 252.24s-4.972 3.667-3.9 4.848 3.9-4.848 3.9-4.848z" class="prefix__cls-6" data-name="Path 78" transform="translate(-892.908 -190.956)"/>
            <path id="prefix__Path_80" d="M755.472 810.45s-4.968 3.255-7.452 2.769a8.816 8.816 0 0 0-5.03.831 14.97 14.97 0 0 1-6.273 4.083c-4.021 1.36-9.638.827-12.832-.24-1.514-.5-1.634-1.154-.907-1.954 3.473.692 11.235 2.067 13.327 1.068a55.224 55.224 0 0 0 6.624-4.141s5.092-.71 5.8-.71a63.371 63.371 0 0 0 6.651-2.554z" class="prefix__cls-6" data-name="Path 80" transform="translate(-699.86 -576.849)"/>
            <path id="prefix__Path_82" d="M800.387 249.93s0 13.487-1.154 14.819 1.154-14.819 1.154-14.819z" class="prefix__cls-6" data-name="Path 82" transform="translate(-752.732 -189.357)"/>
            <path id="prefix__Path_83" d="M977.05 264.06l1.714 4.819s.682-4.73-1.714-4.819z" class="prefix__cls-6" data-name="Path 83" transform="translate(-876.068 -199.14)"/>
            <g id="prefix__Group_1" class="prefix__cls-13" data-name="Group 1" transform="translate(55.457 9.833)">
                <path id="prefix__Path_84" d="M838.738 88.384c.434-1.111-.7-2.2-.849-3.384a2.226 2.226 0 0 0-.191 1.071 19.915 19.915 0 0 0 .923 2.563 1.4 1.4 0 0 0 .117-.249z" data-name="Path 84" transform="translate(-835.04 -85)"/>
                <path id="prefix__Path_85" d="M852.4 109.487c-.425-1.867-.308-3.843-.732-5.707s-1.763-3.821-3.575-3.852c-.781 0-1.7.286-2.261-.308-.338-.351-.409-.923-.665-1.338-1.3-2.1-5.23-1.032-6.851.04-2.421 1.609-5.744 4.972-8.845 4.208a11.267 11.267 0 0 0-.4 1.1c3.166.987 6.593-2.5 9.069-4.15 1.615-1.074 5.556-2.154 6.851-.04.258.428.326.987.668 1.338.563.585 1.477.286 2.258.308 1.812.032 3.138 1.954 3.578 3.852s.308 3.91.747 5.806a3.2 3.2 0 0 1 .161-1.252z" data-name="Path 85" transform="translate(-829.071 -93.363)"/>
                <path id="prefix__Path_86" d="M913.842 127.871c-.308.941-1.166 1.8-2.076 1.609s-1.357-1.231-2.036-1.877a2.769 2.769 0 0 0-3.194-.446 3.224 3.224 0 0 0-1.569 2.867 3.077 3.077 0 0 1 1.394-1.714 2.769 2.769 0 0 1 3.19.446c.683.649 1.147 1.689 2.04 1.877s1.754-.668 2.074-1.609a8.045 8.045 0 0 0 .326-1.7 4.743 4.743 0 0 1-.149.547z" data-name="Path 86" transform="translate(-881.617 -113.969)"/>
                <path id="prefix__Path_87" d="M937.363 101.054c-.665 1.754-1.871 3.267-2.27 5.113-.08.372-.126.754-.172 1.135.406-1.846 1.6-3.347 2.267-5.095a9.134 9.134 0 0 0 .548-2.461 9 9 0 0 1-.372 1.307z" data-name="Path 87" transform="translate(-902.356 -95.21)"/>
            </g>
            <rect id="prefix__Rectangle_1" width=".271" height="2.221" class="prefix__cls-14" data-name="Rectangle 1" rx=".135" transform="rotate(-26.744 130.788 9.328)"/>
            <rect id="prefix__Rectangle_5" width="9.014" height="18.323" class="prefix__cls-14" data-name="Rectangle 5" rx="2.24" transform="rotate(-26.744 126.476 30.066)"/>
            <path id="prefix__Path_88" d="M657.382 238.584a.308.308 0 0 0-.142.434l.032.058a.308.308 0 0 1-.145.434l-3.412 1.72a.308.308 0 0 1-.434-.142l-.032-.062a.308.308 0 0 0-.434-.142l-.664.332a.615.615 0 0 0-.274.831l7.258 14.407a.615.615 0 0 0 .831.274l5.953-3a.615.615 0 0 0 .274-.827l-7.249-14.409a.615.615 0 0 0-.827-.271z" class="prefix__cls-5" data-name="Path 88" transform="translate(-650.886 -181.204)"/>
        </g>
        <path id="prefix__Rectangle_10" d="M0 0H11.764V1.863H0z" class="prefix__cls-6" data-name="Rectangle 10" transform="translate(425.478 316.227)"/>
        <path id="prefix__Path_95" d="M628.436 262.8v36.695a3.675 3.675 0 0 1-3.682 3.682H620.8V259.12h3.954a3.675 3.675 0 0 1 3.682 3.677z" class="prefix__cls-7" data-name="Path 95" transform="translate(-164.955 -114.558)"/>
        <path id="prefix__Path_96" d="M632.133 259.175v34.811a4.1 4.1 0 0 1-.677.055h-.566V259.12h.567a4.1 4.1 0 0 1 .676.055z" class="prefix__cls-15" data-name="Path 96" transform="translate(-171.655 -109.91)"/>
        <path id="prefix__Rectangle_7" d="M0 0H14.256V114.304H0z" class="prefix__cls-7" data-name="Rectangle 7" transform="translate(431.769 201.564)"/>
        <path id="prefix__Path_97" d="M410.342 726.54h32.64a13.512 13.512 0 0 1 13.512 13.512v2.078H396.83v-2.078a13.512 13.512 0 0 1 13.512-13.512z" class="prefix__cls-7" data-name="Path 97" transform="translate(11.414 -412.465)"/>
        <path id="prefix__Rectangle_11" d="M0 0H14.256V13.711H0z" class="prefix__cls-6" data-name="Rectangle 11" transform="translate(431.769 217.3)"/>
        <path id="prefix__Rectangle_12" d="M0 0H14.256V13.711H0z" class="prefix__cls-6" data-name="Rectangle 12" transform="translate(431.769 216.367)"/>
        <path id="prefix__Rectangle_13" d="M0 0H17.061V13.711H0z" class="prefix__cls-7" data-name="Rectangle 13" transform="translate(430.447 216.832)"/>
        <path id="prefix__Path_98" d="M554.79 394.582v5.69a5.338 5.338 0 0 1-5.339 5.338h-18.923a5.338 5.338 0 0 1-5.338-5.338v-5.69a5.335 5.335 0 0 1 5.338-5.332h18.923a5.335 5.335 0 0 1 5.339 5.332z" class="prefix__cls-7" data-name="Path 98" transform="translate(-101.087 -201.629)"/>
        <path id="prefix__Path_99" d="M554.77 394.582v.581a18.621 18.621 0 0 1-29.61 0v-.581a5.335 5.335 0 0 1 5.338-5.332h18.923a5.335 5.335 0 0 1 5.348 5.332z" class="prefix__cls-6" data-name="Path 99" transform="translate(-101.067 -201.629)"/>
        <path id="prefix__Path_100" d="M434.584 202h34.232a1.5 1.5 0 0 1 1.5 1.5v42.827a16.138 16.138 0 0 1-16.138 16.138h-4.964a16.138 16.138 0 0 1-16.138-16.138V203.5a1.5 1.5 0 0 1 1.5-1.5z" class="prefix__cls-7" data-name="Path 100" transform="translate(-12.801 -62.066)"/>
        <path id="prefix__Path_101" d="M445.141 135.364h21.581c3.165 0 5.73 2 5.73 4.458v12.772a1.879 1.879 0 0 1-2.065 1.606h-28.911a1.879 1.879 0 0 1-2.065-1.606V139.82c0-2.462 2.565-4.458 5.73-4.458z" class="prefix__cls-7" data-name="Path 101" transform="translate(-17.168 -12.315)"/>
        <path id="prefix__Rectangle_14" d="M0 0H23.21V1.713H0z" class="prefix__cls-15" data-name="Rectangle 14" transform="translate(426.9 132.829)"/>
        <path id="prefix__Rectangle_15" d="M0 0H29.603V21.483H0z" class="prefix__cls-6" data-name="Rectangle 15" transform="translate(424.096 145.431)"/>
        <path id="prefix__Rectangle_16" d="M0 0H29.603V21.483H0z" class="prefix__cls-1" data-name="Rectangle 16" transform="translate(424.096 144.963)"/>
        <g id="prefix__Group_2" class="prefix__cls-13" data-name="Group 2" transform="translate(424.262 170.128)">
            <rect id="prefix__Rectangle_17" width="6.66" height="2.377" data-name="Rectangle 17" rx=".79"/>
            <rect id="prefix__Rectangle_18" width="6.66" height="2.377" data-name="Rectangle 18" rx=".79" transform="translate(7.536)"/>
            <rect id="prefix__Rectangle_19" width="6.66" height="2.377" data-name="Rectangle 19" rx=".79" transform="translate(15.072)"/>
            <rect id="prefix__Rectangle_20" width="6.66" height="2.377" data-name="Rectangle 20" rx=".79" transform="translate(22.612)"/>
            <rect id="prefix__Rectangle_21" width="6.66" height="2.377" data-name="Rectangle 21" rx=".79" transform="translate(0 4.655)"/>
            <rect id="prefix__Rectangle_22" width="6.66" height="2.377" data-name="Rectangle 22" rx=".79" transform="translate(7.536 4.655)"/>
            <rect id="prefix__Rectangle_23" width="6.66" height="2.377" data-name="Rectangle 23" rx=".79" transform="translate(15.072 4.655)"/>
            <rect id="prefix__Rectangle_24" width="6.66" height="2.377" data-name="Rectangle 24" rx=".79" transform="translate(0 9.193)"/>
            <rect id="prefix__Rectangle_25" width="6.66" height="2.377" data-name="Rectangle 25" rx=".79" transform="translate(7.536 9.193)"/>
            <rect id="prefix__Rectangle_26" width="6.66" height="2.377" data-name="Rectangle 26" rx=".79" transform="translate(15.072 9.193)"/>
            <rect id="prefix__Rectangle_27" width="6.66" height="2.377" data-name="Rectangle 27" rx=".79" transform="translate(0 14.199)"/>
            <rect id="prefix__Rectangle_28" width="6.66" height="2.377" data-name="Rectangle 28" rx=".79" transform="translate(7.536 14.199)"/>
            <rect id="prefix__Rectangle_29" width="6.66" height="2.377" data-name="Rectangle 29" rx=".79" transform="translate(15.072 14.199)"/>
            <rect id="prefix__Rectangle_30" width="6.66" height="2.377" data-name="Rectangle 30" rx=".79" transform="translate(22.612 4.655)"/>
            <rect id="prefix__Rectangle_31" width="5.903" height="8.472" data-name="Rectangle 31" rx="1.97" transform="translate(23.02 8.937)"/>
        </g>
        <rect id="prefix__Rectangle_32" width="6.66" height="2.377" class="prefix__cls-16" data-name="Rectangle 32" rx=".79" transform="translate(424.262 169.66)"/>
        <rect id="prefix__Rectangle_33" width="6.66" height="2.377" class="prefix__cls-16" data-name="Rectangle 33" rx=".79" transform="translate(431.799 169.66)"/>
        <rect id="prefix__Rectangle_34" width="6.66" height="2.377" class="prefix__cls-16" data-name="Rectangle 34" rx=".79" transform="translate(439.335 169.66)"/>
        <rect id="prefix__Rectangle_35" width="6.66" height="2.377" class="prefix__cls-11" data-name="Rectangle 35" rx=".79" transform="translate(446.874 169.66)"/>
        <rect id="prefix__Rectangle_36" width="6.66" height="2.377" class="prefix__cls-16" data-name="Rectangle 36" rx=".79" transform="translate(424.262 174.315)"/>
        <rect id="prefix__Rectangle_37" width="6.66" height="2.377" class="prefix__cls-16" data-name="Rectangle 37" rx=".79" transform="translate(431.799 174.315)"/>
        <rect id="prefix__Rectangle_38" width="6.66" height="2.377" class="prefix__cls-16" data-name="Rectangle 38" rx=".79" transform="translate(439.335 174.315)"/>
        <rect id="prefix__Rectangle_39" width="6.66" height="2.377" class="prefix__cls-16" data-name="Rectangle 39" rx=".79" transform="translate(424.262 178.853)"/>
        <rect id="prefix__Rectangle_40" width="6.66" height="2.377" class="prefix__cls-16" data-name="Rectangle 40" rx=".79" transform="translate(431.799 178.853)"/>
        <rect id="prefix__Rectangle_41" width="6.66" height="2.377" class="prefix__cls-16" data-name="Rectangle 41" rx=".79" transform="translate(439.335 178.853)"/>
        <rect id="prefix__Rectangle_42" width="6.66" height="2.377" class="prefix__cls-16" data-name="Rectangle 42" rx=".79" transform="translate(424.262 183.859)"/>
        <rect id="prefix__Rectangle_43" width="6.66" height="2.377" class="prefix__cls-16" data-name="Rectangle 43" rx=".79" transform="translate(431.799 183.859)"/>
        <rect id="prefix__Rectangle_44" width="6.66" height="2.377" class="prefix__cls-16" data-name="Rectangle 44" rx=".79" transform="translate(439.335 183.859)"/>
        <rect id="prefix__Rectangle_45" width="6.66" height="2.377" class="prefix__cls-11" data-name="Rectangle 45" rx=".79" transform="translate(446.874 174.315)"/>
        <rect id="prefix__Rectangle_46" width="5.903" height="8.472" class="prefix__cls-5" data-name="Rectangle 46" rx="1.97" transform="translate(447.283 178.6)"/>
        <path id="prefix__Rectangle_47" d="M0 0H3.19V0.382H0z" class="prefix__cls-16" data-name="Rectangle 47" transform="translate(438.857 163.837)"/>
        <path id="prefix__Rectangle_48" d="M0 0H3.19V0.382H0z" class="prefix__cls-16" data-name="Rectangle 48" transform="translate(443.325 163.837)"/>
        <path id="prefix__Rectangle_49" d="M0 0H3.19V0.382H0z" class="prefix__cls-16" data-name="Rectangle 49" transform="translate(447.794 163.837)"/>
    </g>
</svg>
