<svg xmlns="http://www.w3.org/2000/svg" id="prefix__Profile_Section" width="49.08" height="68.645" data-name="Profile Section" viewBox="0 0 49.08 68.645">
    <defs>
        <style>
            .prefix__cls-4{fill:#333}.prefix__cls-5{opacity:.1}.prefix__cls-6{fill:#fdb797}
        </style>
        <style type="text/css">
            @font-face {
              font-family: Montserrat;
              src: url("../vendor/fonts/Montserrat/Montserrat-Regular.ttf");
            }
        </style>
    </defs>
    <text id="prefix__YOU" fill="#fff" font-family="Montserrat-Bold, Montserrat" font-size="10px" font-weight="700" transform="translate(13.447 65.645)">
        <tspan x="0" y="0">YOU</tspan>
    </text>
    <g id="prefix__Group_60" data-name="Group 60" transform="translate(-.553 -.353)">
        <ellipse id="prefix__Ellipse_92" cx="24.54" cy="24.493" fill="#f5f5f5" data-name="Ellipse 92" rx="24.54" ry="24.493" transform="translate(.553 .353)"/>
        <path id="prefix__Path_352" fill="#63a5ff" d="M419.137 673.086c4.955.007 9.427-4 13.563-6.344-.934-4.393-3.927-4.9-3.927-4.9h-19.61s-3.323.078-4.371 4.119c4.264 2.579 9.132 7.133 14.345 7.125z" data-name="Path 352" transform="translate(-394.187 -621.274)"/>
        <circle id="prefix__Ellipse_93" cx="11.339" cy="11.339" r="11.339" class="prefix__cls-4" data-name="Ellipse 93" transform="translate(13.511 12.96)"/>
        <path id="prefix__Path_353" d="M293.15 476.92h7.266v5.813a3.633 3.633 0 0 1-3.631 3.633 3.633 3.633 0 0 1-3.633-3.633v-5.813z" class="prefix__cls-5" data-name="Path 353" transform="translate(-271.955 -442.125)"/>
        <path id="prefix__Path_354" d="M293.4 473h6.808a.23.23 0 0 1 .23.23v5.582a3.633 3.633 0 0 1-3.635 3.633 3.633 3.633 0 0 1-3.633-3.633v-5.582a.23.23 0 0 1 .23-.23z" class="prefix__cls-6" data-name="Path 354" transform="translate(-271.974 -438.474)"/>
        <path id="prefix__Path_355" d="M544.34 605.984a10.458 10.458 0 0 0 7.266.02v-.894h-7.266z" class="prefix__cls-5" data-name="Path 355" transform="translate(-523.132 -568.953)"/>
        <circle id="prefix__Ellipse_94" cx="10.414" cy="10.414" r="10.414" class="prefix__cls-6" data-name="Ellipse 94" transform="translate(14.437 16.315)"/>
        <path id="prefix__Path_356" d="M489.49 300.219s4.389 8.909 16.77 3.735l-2.883-4.52-5.11-1.834z" class="prefix__cls-5" data-name="Path 356" transform="translate(-471.99 -283.405)"/>
        <path id="prefix__Path_357" d="M489.49 298.3s4.389 8.909 16.77 3.734l-2.883-4.52-5.11-1.834z" class="prefix__cls-4" data-name="Path 357" transform="translate(-471.99 -281.624)"/>
        <path id="prefix__Path_358" d="M485.986 227.677a6.016 6.016 0 0 1 1.492-2.425c2.048-2.025 5.407-2.452 7.129-4.761a1.348 1.348 0 0 1-.619 1.9c1.65-.011 3.563-.155 4.5-1.513a3.087 3.087 0 0 1-.521 3.259c1.463.069 3.026 1.059 3.118 2.52a2.916 2.916 0 0 1-1.347 2.454 7.464 7.464 0 0 1-2.72 1.025c-2.785.614-12.847 3.184-11.032-2.459z" class="prefix__cls-4" data-name="Path 358" transform="translate(-468.59 -211.832)"/>
        <ellipse id="prefix__Ellipse_95" cx=".969" cy="1.817" class="prefix__cls-6" data-name="Ellipse 95" rx=".969" ry="1.817" transform="translate(12.995 24.857)"/>
        <ellipse id="prefix__Ellipse_96" cx=".969" cy="1.817" class="prefix__cls-6" data-name="Ellipse 96" rx=".969" ry="1.817" transform="translate(34.775 24.857)"/>
    </g>
</svg>
