<svg xmlns="http://www.w3.org/2000/svg" id="prefix__Component_129_1" width="135.275" height="87.848" data-name="Component 129 – 1" viewBox="0 0 135.275 87.848">
    <defs>
        <linearGradient id="prefix__linear-gradient" x1=".5" x2=".5" y2="1" gradientUnits="objectBoundingBox">
            <stop offset="0" stop-color="#1365d5"/>
            <stop offset="1" stop-color="#00a7ff"/>
        </linearGradient>
        <linearGradient id="prefix__linear-gradient-2" x1=".5" x2=".5" y2="1" gradientUnits="objectBoundingBox">
            <stop offset="0" stop-color="#04c66c"/>
            <stop offset="1" stop-color="#00ff9d"/>
        </linearGradient>
    </defs>
    <g id="prefix__Group_54" data-name="Group 54" transform="translate(-339.955 -284.959)">
        <g id="prefix__Exclusion_3" fill="url(#prefix__linear-gradient)" stroke="none" data-name="Exclusion 3" transform="translate(340.318 285.326)">
            <path d="M90.988 86.982c-2.003 0-3.886-.78-5.303-2.196L67.98 67.08l17.512-17.512c3.314-3.313 3.314-8.706 0-12.02L67.98 20.035 85.685 2.33C87.102.914 88.985.134 90.988.134c2.004 0 3.887.78 5.304 2.197l35.924 35.923c1.416 1.417 2.197 3.3 2.197 5.304 0 2.003-.78 3.887-2.197 5.303L96.292 84.786c-1.417 1.416-3.3 2.196-5.304 2.196zm-47.43 0c-2.004 0-3.887-.78-5.304-2.196L2.33 48.86c-2.924-2.924-2.924-7.682 0-10.607L38.254 2.331C39.671.914 41.554.134 43.557.134c2.004 0 3.887.78 5.303 2.197l17.706 17.705-17.512 17.511c-3.314 3.315-3.314 8.708 0 12.021L66.566 67.08 48.86 84.786c-1.416 1.416-3.3 2.196-5.303 2.196z"/>
            <path fill="#1b2231" d="M90.988 86.482c1.87 0 3.628-.728 4.95-2.05l35.924-35.925c1.322-1.321 2.05-3.08 2.05-4.949 0-1.87-.728-3.628-2.05-4.95L95.938 2.684c-1.322-1.322-3.08-2.05-4.95-2.05s-3.627.728-4.95 2.05L68.688 20.036l17.158 17.158c3.509 3.51 3.509 9.22 0 12.728L68.687 67.08l17.352 17.352c1.322 1.322 3.08 2.05 4.95 2.05m-47.432 0c1.87 0 3.628-.728 4.95-2.05L65.859 67.08 48.7 49.922c-3.508-3.509-3.508-9.219 0-12.728L65.86 20.036 48.507 2.684c-1.322-1.322-3.08-2.05-4.95-2.05s-3.627.728-4.95 2.05L2.685 38.608c-2.73 2.73-2.73 7.17 0 9.9l35.924 35.924c1.322 1.322 3.08 2.05 4.95 2.05m47.43 1c-2.137 0-4.145-.832-5.656-2.343L67.272 67.08l17.866-17.865c3.119-3.12 3.119-8.194 0-11.314L67.273 20.036 85.332 1.977c1.51-1.511 3.52-2.343 5.656-2.343 2.137 0 4.146.832 5.658 2.343l35.923 35.924c1.511 1.511 2.344 3.52 2.344 5.657s-.833 4.146-2.344 5.657L96.646 85.139c-1.512 1.511-3.52 2.343-5.658 2.343zm-47.43 0c-2.137 0-4.146-.832-5.657-2.343L1.976 49.215c-3.118-3.12-3.118-8.194 0-11.314L37.901 1.977C39.41.466 41.42-.366 43.557-.366c2.137 0 4.146.832 5.657 2.343l18.059 18.059L49.407 37.9c-3.118 3.12-3.118 8.195 0 11.314L67.273 67.08l-18.06 18.06c-1.51 1.51-3.519 2.342-5.656 2.342z"/>
        </g>
        <path id="prefix__Path_4" fill="url(#prefix__linear-gradient-2)" stroke="#1b2231" d="M738.511 230.774l-13.2 13.149a3.657 3.657 0 0 0 0 4.455c1.739 2.312 13.188 13.278 13.188 13.278l13.349-13.418a3.512 3.512 0 0 0-.169-4.28c-1.779-2.038-13.168-13.184-13.168-13.184z" data-name="Path 4" transform="translate(-330.951 82.862)"/>
    </g>
</svg>
