<svg xmlns="http://www.w3.org/2000/svg" id="prefix__Component_128_1" width="190.518" height="168.266" data-name="Component 128 – 1" viewBox="0 0 190.518 168.266">
    <defs>
        <style type="text/css">
            @font-face {
              font-family: Raleway;
              src: url("../vendor/fonts/Raleway/Raleway-Regular.ttf");
            }
        </style>
        <linearGradient id="prefix__linear-gradient" x1=".5" x2=".5" y2="1" gradientUnits="objectBoundingBox">
            <stop offset="0" stop-color="#1365d5"/>
            <stop offset="1" stop-color="#00a7ff"/>
        </linearGradient>
        <linearGradient id="prefix__linear-gradient-2" x1=".5" x2=".5" y2="1" gradientUnits="objectBoundingBox">
            <stop offset="0" stop-color="#04c66c"/>
            <stop offset="1" stop-color="#00ff9d"/>
        </linearGradient>
    </defs>
    <text id="prefix__Indacto" fill="#fff" font-family="Raleway-Bold, Raleway" font-size="30px" font-weight="700" letter-spacing="0.025em" transform="translate(38.277 161.266)">
        <tspan x="0" y="0">Indacto</tspan>
    </text>
    <g id="prefix__Group_54" data-name="Group 54" transform="translate(1.636 1.636)">
        <g id="prefix__Exclusion_3" fill="url(#prefix__linear-gradient)" stroke="none" data-name="Exclusion 3">
            <path d="M126.57 121.488c-1.736 0-3.368-.677-4.596-1.904l-26.23-26.23 25.96-25.96c1.795-1.795 2.784-4.181 2.784-6.719 0-2.537-.989-4.923-2.783-6.717L95.744 27.997l26.23-26.23C123.2.54 124.834-.136 126.57-.136c1.736 0 3.369.676 4.597 1.903l54.31 54.312c1.229 1.228 1.905 2.86 1.905 4.596 0 1.737-.676 3.37-1.904 4.597l-54.312 54.311c-1.228 1.228-2.86 1.905-4.596 1.905zm-65.894 0c-1.737 0-3.369-.677-4.596-1.904L1.768 65.272C.54 64.044-.136 62.412-.136 60.675c0-1.736.676-3.368 1.904-4.595L56.079 1.767C57.307.54 58.94-.136 60.676-.136c1.736 0 3.368.676 4.596 1.903l26.23 26.23L65.54 53.958c-3.703 3.704-3.703 9.73 0 13.435l25.961 25.961-26.229 26.23c-1.228 1.227-2.86 1.904-4.596 1.904z"/>
            <path d="M126.57 119.988c1.335 0 2.591-.52 3.536-1.465l54.311-54.312c.945-.944 1.465-2.2 1.465-3.536 0-1.335-.52-2.59-1.465-3.535l-54.31-54.312c-.946-.944-2.201-1.464-3.537-1.464-1.336 0-2.591.52-3.535 1.464l-25.17 25.169 24.9 24.9c2.078 2.078 3.223 4.84 3.223 7.778 0 2.939-1.145 5.701-3.223 7.779l-24.9 24.9 25.17 25.17c.944.944 2.2 1.464 3.535 1.464m-65.894 0c1.335 0 2.59-.52 3.535-1.465l25.17-25.169-24.902-24.9c-4.288-4.29-4.288-11.268 0-15.557l24.901-24.9-25.169-25.17c-.944-.943-2.2-1.463-3.535-1.463-1.336 0-2.592.52-3.536 1.464L2.828 57.14c-.944.945-1.464 2.2-1.464 3.535 0 1.336.52 2.592 1.465 3.536l54.311 54.312c.945.945 2.2 1.465 3.536 1.465m65.894 3c-2.137 0-4.146-.833-5.657-2.344l-27.29-27.29 27.021-27.021c1.511-1.512 2.344-3.52 2.344-5.658 0-2.136-.833-4.145-2.344-5.656L93.623 27.997l27.29-27.29c1.511-1.511 3.52-2.343 5.657-2.343s4.146.832 5.657 2.343l54.311 54.312c1.512 1.51 2.344 3.52 2.344 5.656 0 2.137-.832 4.146-2.344 5.658l-54.31 54.311c-1.512 1.511-3.521 2.344-5.658 2.344zm-65.894 0c-2.137 0-4.146-.833-5.657-2.344L.707 66.333c-1.51-1.512-2.343-3.52-2.343-5.658 0-2.136.832-4.145 2.343-5.656L55.02.707c1.51-1.511 3.52-2.343 5.657-2.343s4.146.832 5.657 2.343l27.29 27.29L66.6 55.019c-3.119 3.119-3.119 8.194 0 11.314l27.022 27.021-27.29 27.29c-1.511 1.511-3.52 2.344-5.657 2.344z"/>
        </g>
        <path id="prefix__Path_4" fill="url(#prefix__linear-gradient-2)" stroke="#000" stroke-width="2px" d="M743.949 230.774l-18.335 18.268a5.081 5.081 0 0 0 0 6.189c2.416 3.212 18.321 18.446 18.321 18.446l18.545-18.641s2.245-3.115-.234-5.946-18.297-18.316-18.297-18.316z" data-name="Path 4" transform="translate(-650.37 -191.281)"/>
    </g>
</svg>
