<svg xmlns="http://www.w3.org/2000/svg" id="prefix__Component_122_1" width="49" height="49" data-name="Component 122 – 1" viewBox="0 0 49 49">
    <defs>
        <style>
            .prefix__cls-2{fill:#2ec68b}
        </style>
    </defs>
    <circle id="prefix__Ellipse_104" cx="24.5" cy="24.5" r="24.5" fill="#232d3f" data-name="Ellipse 104"/>
    <g id="prefix__Group_64" data-name="Group 64" transform="translate(11.855 11.854)">
        <g id="prefix__Step_1_Image" data-name="Step 1 Image">
            <path id="prefix__Path_58" d="M164.591 258.857a.867.867 0 0 1-.755-1.3c1.1-1.857 4.45-6.2 11.766-6.2a13.839 13.839 0 0 1 8.257 2.5 14.008 14.008 0 0 1 3.472 3.646.86.86 0 0 1-.229 1.2.88.88 0 0 1-1.213-.229 11.7 11.7 0 0 0-10.287-5.4c-6.412 0-9.309 3.738-10.256 5.341a.854.854 0 0 1-.755.442z" class="prefix__cls-2" data-name="Path 58" transform="translate(-163.721 -251.361)"/>
            <path id="prefix__Path_59" d="M194.065 324.716a.864.864 0 0 1-.217-.025c-5.3-1.331-7.285-6.691-7.365-6.914l-.012-.049c-.043-.155-1.108-3.831.526-5.985a4.008 4.008 0 0 1 3.392-1.485 3.614 3.614 0 0 1 3.1 1.349 6.755 6.755 0 0 1 1.021 2.544c.464 1.838.8 2.8 2.73 2.9a1.993 1.993 0 0 0 1.721-.885 5.177 5.177 0 0 0 .359-4.735 9.893 9.893 0 0 0-8.937-6.245 9.074 9.074 0 0 0-5.868 2.067 9.525 9.525 0 0 0-2.934 4.32c-.953 3.02.3 7.768.309 7.811a.859.859 0 0 1-.619 1.052.879.879 0 0 1-1.071-.613c-.056-.217-1.393-5.28-.291-8.77a11 11 0 0 1 17.51-5.038 12.076 12.076 0 0 1 3.528 4.791 6.842 6.842 0 0 1-.582 6.363 3.707 3.707 0 0 1-3.218 1.6c-3.305-.167-3.9-2.5-4.333-4.2-.446-1.745-.73-2.587-2.432-2.587a2.332 2.332 0 0 0-2 .8 4.218 4.218 0 0 0-.538 2.723v.026a7.051 7.051 0 0 0 .941 3.014 9.2 9.2 0 0 0 5.494 4.48.86.86 0 0 1 .631 1.046.879.879 0 0 1-.848.65z" class="prefix__cls-2" data-name="Path 59" transform="translate(-178.501 -298.666)"/>
            <path id="prefix__Path_60" d="M237.217 374.6a.881.881 0 0 1-.638-.272 13.9 13.9 0 0 1-3.775-7.922v-.019a9.245 9.245 0 0 1 1.937-7.068 7.174 7.174 0 0 1 5.6-2.259 6.952 6.952 0 0 1 6.381 3.806 10.7 10.7 0 0 1 1.2 3.683.874.874 0 1 1-1.739.179 8.96 8.96 0 0 0-1.021-3.076 5.221 5.221 0 0 0-4.828-2.866 5.49 5.49 0 0 0-4.3 1.677 7.6 7.6 0 0 0-1.516 5.707 12.206 12.206 0 0 0 3.324 6.982.856.856 0 0 1-.043 1.219.878.878 0 0 1-.582.229z" class="prefix__cls-2" data-name="Path 60" transform="translate(-228.461 -349.038)"/>
            <circle id="prefix__Ellipse_36" cx="1.114" cy="1.114" r="1.114" class="prefix__cls-2" data-name="Ellipse 36" transform="translate(11.566 14.743)"/>
        </g>
    </g>
</svg>
