<svg xmlns="http://www.w3.org/2000/svg" id="prefix__Component_124_1" width="49" height="49" data-name="Component 124 – 1" viewBox="0 0 49 49">
    <g id="prefix__Group_85" data-name="Group 85" transform="translate(-13493 -16109)">
        <circle id="prefix__Ellipse_104" cx="24.5" cy="24.5" r="24.5" fill="#232d3f" data-name="Ellipse 104" transform="translate(13493 16109)"/>
    </g>
    <g id="prefix__Step3_Image" data-name="Step3 Image" transform="rotate(-20 26.923 26.96)">
        <path id="prefix__Icon_ionic-logo-whatsapp" fill="#77b569" d="M12.278 0A11.8 11.8 0 0 0 .438 11.749a11.627 11.627 0 0 0 1.7 6.067L0 24.118l6.555-2.082a11.86 11.86 0 0 0 17.563-10.287A11.794 11.794 0 0 0 12.278 0zm5.888 16.21a3.058 3.058 0 0 1-2.094 1.35c-.555.029-.571.43-3.6-.885a12.353 12.353 0 0 1-4.992-4.72 5.806 5.806 0 0 1-1.116-3.146 3.355 3.355 0 0 1 1.153-2.462A1.16 1.16 0 0 1 8.337 6c.238 0 .393-.007.569 0s.441-.037.67.573.778 2.108.848 2.26a.549.549 0 0 1 .005.526 2.056 2.056 0 0 1-.321.489c-.158.169-.332.379-.473.509-.157.143-.321.3-.156.607a9.06 9.06 0 0 0 1.6 2.139 8.261 8.261 0 0 0 2.374 1.578c.3.162.474.144.658-.05s.788-.848 1-1.14.412-.235.686-.125 1.731.891 2.028 1.053.495.244.566.371a2.486 2.486 0 0 1-.226 1.42z" data-name="Icon ionic-logo-whatsapp" transform="rotate(23 -10.624 50.563)"/>
    </g>
</svg>
