<svg xmlns="http://www.w3.org/2000/svg" id="prefix__VerificationFailedImage" width="258" height="229.976" viewBox="0 0 258 229.976">
    <defs>
        <style>
            .prefix__cls-8{fill:#6c63ff}.prefix__cls-3{opacity:.1}.prefix__cls-6{fill:#444053}.prefix__cls-9{fill:#ffd037}
        </style>
        <style type="text/css">
            @font-face {
              font-family: Montserrat;
              src: url("../vendor/fonts/Montserrat/Montserrat-Regular.ttf");
            }
        </style>
    </defs>
    <text id="prefix__Verification_failed" data-name="Verification failed" transform="translate(129 202.976)" style="letter-spacing:.032em;font-size:26px;font-family:Montserrat-Bold,Montserrat;font-weight:700;fill:#fc6161">
        <tspan x="-128.518" y="0">Verification failed</tspan>
    </text>
    <g id="prefix__Group_40" data-name="Group 40" transform="translate(16.954)">
        <ellipse id="prefix__Ellipse_58" cx="93.924" cy="8.641" data-name="Ellipse 58" rx="93.924" ry="8.641" transform="translate(17.408 137.822)" style="opacity:.1;fill:#6c63ff"/>
        <path id="prefix__Path_251" d="M888.79 800.172c-.611.023-4.087 0-4.087 0a1.876 1.876 0 0 1-.143-.168c.889-.304 2.809-.757 4.23.168z" class="prefix__cls-3" data-name="Path 251" transform="translate(-712.398 -649.93)"/>
        <path id="prefix__Path_252" d="M936.1 800.172c-.611.023-4.087 0-4.087 0a1.885 1.885 0 0 1-.143-.168 5.135 5.135 0 0 1 4.23.168z" class="prefix__cls-3" data-name="Path 252" transform="translate(-749.767 -649.93)"/>
        <ellipse id="prefix__Ellipse_61" cx="1.891" cy="1.282" data-name="Ellipse 61" rx="1.891" ry="1.282" transform="translate(170.602 78.733)" style="fill:#575a89"/>
        <circle id="prefix__Ellipse_62" cx="64.825" cy="64.825" r="64.825" data-name="Ellipse 62" transform="translate(48.025 21.715)" style="fill:#fc6161"/>
        <path id="prefix__Path_272" d="M475.137 549.4c0 10.233-16.087.874-33.335.874s-34.692 8.973-34.692-1.261c0-5.835 5.56-13.951 13.537-19.845 6.01-4.442 13.389-7.623 20.8-7.623 7.623 0 15.091 3.444 21.049 8.172 7.52 5.966 12.641 13.976 12.641 19.683z" class="prefix__cls-6" data-name="Path 272" transform="translate(-330.274 -430.289)"/>
        <path id="prefix__Path_273" d="M513.379 529.7c-9.168-1.381-25.749-3.064-41.849-.548 6.01-4.442 13.389-7.623 20.8-7.623 7.624.001 15.092 3.445 21.049 8.171z" data-name="Path 273" transform="translate(-381.158 -430.273)" style="fill:#f6f8fb"/>
        <path id="prefix__Path_275" d="M818.053 113.434s-17.693-1.065-15.606 11.332a3.014 3.014 0 0 0 1.572 3.186s.031-.918 1.813-.607a8.194 8.194 0 0 0 1.923.092 3.992 3.992 0 0 0 2.349-.971s4.974-2.053 6.909-10.183c0 0 1.431-1.773 1.374-2.227l-2.986 1.273a5.336 5.336 0 0 1 .21 3.944s-.1-3.864-.67-3.782c-.116.019-1.551.746-1.551.746s1.755 3.753.42 6.478c0 0 .5-4.623-.979-6.207l-2.1 1.227s2.051 3.875.66 7.037c0 0 .357-4.85-1.1-6.739l-1.906 1.486s1.927 3.82.752 6.443c0 0-.153-5.646-1.164-6.073a11.659 11.659 0 0 0-1.921 2.074s1.32 2.772.5 4.234c0 0-.5-3.761-.914-3.782a12.519 12.519 0 0 0-1.834 4.2 9.085 9.085 0 0 1 1.431-4.44 4.985 4.985 0 0 0-2.54 1.318s.258-1.763 2.942-1.916a11.49 11.49 0 0 1 1.74-2 10.9 10.9 0 0 0-4.3.5s1.429-1.662 4.793-.908l1.891-1.534s-3.526-.483-5.022.05c0 0 1.721-1.471 5.529-.4l2.049-1.225a18.785 18.785 0 0 0-4.8-.42s1.891-1.019 5.4.086l1.471-.658s-2.2-.433-2.849-.5-.679-.248-.679-.248a7.638 7.638 0 0 1 4.14.48 18.677 18.677 0 0 0 3.053-1.366z" class="prefix__cls-8" data-name="Path 275" transform="translate(-647.404 -107.912)"/>
        <path id="prefix__Path_276" d="M764.207 87.251s-7.985-.483-7.052 5.119a1.367 1.367 0 0 0 .71 1.439s.013-.42.819-.273a3.794 3.794 0 0 0 .868.042 1.826 1.826 0 0 0 1.063-.439s2.246-.929 3.12-4.6c0 0 .647-.8.63-1.007l-1.349.576a2.413 2.413 0 0 1 .1 1.782s-.044-1.746-.3-1.7c-.052 0-.7.336-.7.336a3.984 3.984 0 0 1 .2 2.927s.227-2.089-.441-2.805l-.95.555a4.2 4.2 0 0 1 .3 3.181s.16-2.192-.5-3.045l-.862.67a4.107 4.107 0 0 1 .34 2.91s-.069-2.551-.527-2.744a5.267 5.267 0 0 0-.868.937s.6 1.261.227 1.914c0 0-.227-1.7-.42-1.706a5.634 5.634 0 0 0-.828 1.891 4.093 4.093 0 0 1 .645-2.007 2.251 2.251 0 0 0-1.147.595s.116-.8 1.332-.866a5.244 5.244 0 0 1 .786-.906 4.927 4.927 0 0 0-1.944.225 2.2 2.2 0 0 1 2.166-.42l.84-.691a7.3 7.3 0 0 0-2.269.021 2.759 2.759 0 0 1 2.5-.179l.925-.555a8.408 8.408 0 0 0-2.169-.187 3.326 3.326 0 0 1 2.44.04l.662-.3s-1-.2-1.286-.225-.309-.111-.309-.111a3.444 3.444 0 0 1 1.87.21 8.462 8.462 0 0 0 1.378-.604z" class="prefix__cls-8" data-name="Path 276" transform="translate(-611.705 -87.24)"/>
        <ellipse id="prefix__Ellipse_66" cx="8.449" cy="1.429" class="prefix__cls-8" data-name="Ellipse 66" rx="8.449" ry="1.429" transform="translate(201.448 152.232)"/>
        <path id="prefix__Path_277" d="M1051.389 792.761a2.465 2.465 0 0 0 .807-1.217 1.084 1.084 0 0 0-.563-1.238c-.517-.2-1.07.162-1.488.523a1.994 1.994 0 0 1-1.448.7 2.2 2.2 0 0 0 .681-2.061.865.865 0 0 0-.189-.42c-.288-.307-.807-.177-1.151.065a4.289 4.289 0 0 0-1.4 3.589 6.745 6.745 0 0 1-.019-1.471 1.519 1.519 0 0 0-.555-1.309 1.68 1.68 0 0 0-.841-.2 1.749 1.749 0 0 0-1.374.389 1.352 1.352 0 0 0 .055 1.681 5.451 5.451 0 0 0 1.42 1.139 3.152 3.152 0 0 1 1.017.969 1.027 1.027 0 0 1 .076.174h3.078a8.561 8.561 0 0 0 1.894-1.313z" class="prefix__cls-8" data-name="Path 277" transform="translate(-838 -641.434)"/>
        <path id="prefix__Path_278" d="M97.376 723.55s1.154 1.509-.534 3.782-3.078 4.2-2.522 5.623c0 0 2.545-4.232 4.623-4.293s.711-2.567-1.567-5.112z" class="prefix__cls-8" data-name="Path 278" transform="translate(-88.113 -589.843)"/>
        <path id="prefix__Path_279" d="M97.632 723.55a1.892 1.892 0 0 1 .235.473c2.021 2.374 3.1 4.591 1.156 4.646-1.811.053-3.992 3.289-4.5 4.106a1.958 1.958 0 0 0 .063.187s2.545-4.232 4.623-4.293.701-2.574-1.577-5.119z" class="prefix__cls-3" data-name="Path 279" transform="translate(-88.368 -589.843)"/>
        <path id="prefix__Path_280" d="M118.537 731.406c0 .532-.061.962-.134.962s-.132-.42-.132-.962.074-.281.149-.281.117-.25.117.281z" class="prefix__cls-9" data-name="Path 280" transform="translate(-107.128 -595.776)"/>
        <path id="prefix__Path_281" d="M119.578 734.354c-.466.254-.872.408-.908.343s.315-.322.782-.576.282-.069.317 0 .284-.021-.191.233z" class="prefix__cls-9" data-name="Path 281" transform="translate(-107.442 -598.09)"/>
        <path id="prefix__Path_282" d="M70.562 723.55s-1.154 1.509.532 3.782 3.078 4.2 2.522 5.623c0 0-2.547-4.232-4.623-4.293s-.711-2.567 1.569-5.112z" class="prefix__cls-8" data-name="Path 282" transform="translate(-67.397 -589.843)"/>
        <path id="prefix__Path_283" d="M70.551 723.55a1.812 1.812 0 0 0-.235.473c-2.021 2.374-3.1 4.591-1.156 4.646 1.809.053 3.992 3.289 4.5 4.106a1.939 1.939 0 0 1-.061.187s-2.547-4.232-4.623-4.293-.705-2.574 1.575-5.119z" class="prefix__cls-3" data-name="Path 283" transform="translate(-67.385 -589.843)"/>
        <path id="prefix__Path_284" d="M70.1 731.406c0 .532.059.962.132.962s.132-.42.132-.962-.074-.281-.147-.281-.117-.25-.117.281z" class="prefix__cls-9" data-name="Path 284" transform="translate(-69.08 -595.776)"/>
        <path id="prefix__Path_285" d="M65.528 734.354c.466.254.874.408.91.343s-.315-.322-.782-.576-.284-.069-.317 0-.278-.021.189.233z" class="prefix__cls-9" data-name="Path 285" transform="translate(-65.245 -598.09)"/>
        <path id="prefix__Path_286" d="M71.85 760.832s3.228-.1 4.2-.792 4.965-1.519 5.207-.42 4.85 5.526 1.206 5.556-8.466-.569-9.437-1.16-1.176-3.184-1.176-3.184z" data-name="Path 286" transform="translate(-70.462 -617.911)" style="fill:#a8a8a8"/>
        <path id="prefix__Path_287" d="M82.527 771.351c-3.644.029-8.466-.569-9.437-1.16-.74-.45-1.034-2.066-1.133-2.812h-.107s.21 2.6 1.175 3.194 5.793 1.189 9.437 1.16c1.051 0 1.414-.385 1.4-.937-.152.339-.552.549-1.335.555z" data-name="Path 287" transform="translate(-70.462 -624.463)" style="opacity:.2"/>
        <path id="prefix__Path_288" d="M402.318 443.412c1.233-.069 7.039-.506 10.727-2.61a4.179 4.179 0 0 1 1.948-.574c1.173-.034 2.522.456 1.658 3.2-1.4 4.482-9.525 9.525-14.568 9.246a16.711 16.711 0 0 1-14.4-9.094 4.2 4.2 0 0 1-.519-2.162c.044-1.387.548-3.125 3.152-1.187 3.518 2.616 10.191 3.112 11.53 3.186a4.433 4.433 0 0 0 .472-.005z" class="prefix__cls-6" data-name="Path 288" transform="translate(-311.516 -365.372)"/>
        <path id="prefix__Path_289" d="M624.318 443.412c1.233-.069 7.039-.506 10.727-2.61a4.179 4.179 0 0 1 1.948-.574c1.173-.034 2.522.456 1.658 3.2-1.4 4.482-9.525 9.525-14.568 9.246a16.711 16.711 0 0 1-14.4-9.094 4.2 4.2 0 0 1-.519-2.162c.044-1.387.548-3.125 3.152-1.187 3.518 2.616 10.191 3.112 11.53 3.186a4.434 4.434 0 0 0 .472-.005z" class="prefix__cls-6" data-name="Path 289" transform="translate(-487.867 -365.372)"/>
    </g>
    <text id="prefix__Time_exceeded" data-name="Time exceeded" transform="translate(129 225.976)" style="font-size:16px;font-family:Montserrat-Medium,Montserrat;font-weight:500;letter-spacing:.032em;fill:#fc6161">
        <tspan x="-64.576" y="0">Time exceeded</tspan>
    </text>
</svg>
