<svg xmlns="http://www.w3.org/2000/svg" id="prefix__Component_6_1" width="101.381" height="131.778" data-name="Component 6 – 1" viewBox="0 0 101.381 131.778">
    <defs>
        <style>
            .prefix__cls-3{fill:#f5f5f5}.prefix__cls-6{fill:#2f2e41}
        </style>
    </defs>
    <path id="prefix__Path_214" d="M390.022 287.049l-59.03 65.074a47.941 47.941 0 0 0 14.173 17.845L408.751 299a47.791 47.791 0 0 0-18.729-11.949z" data-name="Path 214" transform="translate(-326.485 -283.939)" style="fill:#f2f2f2"/>
    <path id="prefix__Path_217" d="M365.435 373.607a47.935 47.935 0 1 1 47.935-47.935 47.989 47.989 0 0 1-47.935 47.935zm0-95.535a47.6 47.6 0 1 0 47.6 47.6 47.655 47.655 0 0 0-47.6-47.6z" class="prefix__cls-3" data-name="Path 217" transform="translate(-317.5 -277.738)"/>
    <path id="prefix__Path_218" d="M360 353.976a33.738 33.738 0 0 0 33.738 33.738v-67.476A33.738 33.738 0 0 0 360 353.976z" data-name="Path 218" transform="translate(-345.803 -306.041)" style="fill:#81c2fc"/>
    <path id="prefix__Path_219" d="M461 320.238v67.476a33.738 33.738 0 0 0 0-67.476z" data-name="Path 219" transform="translate(-413.065 -306.041)" style="fill:#0097fd"/>
    <circle id="prefix__Ellipse_57" cx="4.5" cy="4.5" r="4.5" class="prefix__cls-6" data-name="Ellipse 57" transform="translate(43.5 45.093)"/>
    <path id="prefix__Path_220" d="M274.33 310.658l1.17 9.242 1.165 9.243H272l1.165-9.243z" class="prefix__cls-6" data-name="Path 220" transform="translate(-226.404 -278.203)"/>
    <path id="prefix__Path_221" d="M301.857 359.757l-15.2.569-15.2.568.008-1.328.008-1.328 15.194.76z" class="prefix__cls-6" data-name="Path 221" transform="translate(-226.039 -309.89)"/>
    <path id="prefix__Path_222" d="M603.863 403.27c-.773 0-1.086-.531-1.481-1.2-.1-.168-.206-.35-.33-.543l.281-.181c.127.2.236.383.337.554.394.67.611 1.039 1.193 1.039 1.934 0 3.507-3.222 3.507-7.182s-1.573-7.182-3.507-7.182c-1.117 0-1.893.689-2.517 2.234l-.31-.125c.683-1.689 1.555-2.443 2.827-2.443 2.118 0 3.841 3.372 3.841 7.516s-1.723 7.513-3.841 7.513z" class="prefix__cls-3" data-name="Path 222" transform="translate(-506.324 -351.326)"/>
</svg>
