<svg xmlns="http://www.w3.org/2000/svg" id="prefix__Whatsapp_Logo" width="25.268" height="25.268" data-name="Whatsapp Logo" viewBox="0 0 25.268 25.268">
    <path id="prefix__Icon_ionic-logo-whatsapp" fill="#179800" d="M15.113 2.25a12.357 12.357 0 0 0-12.4 12.309 12.182 12.182 0 0 0 1.78 6.356l-2.239 6.6 6.868-2.182a12.426 12.426 0 0 0 18.4-10.778A12.357 12.357 0 0 0 15.113 2.25zm6.168 16.983a3.2 3.2 0 0 1-2.194 1.414c-.582.031-.6.451-3.77-.927a12.943 12.943 0 0 1-5.23-4.945 6.083 6.083 0 0 1-1.17-3.3A3.515 3.515 0 0 1 10.125 8.9a1.215 1.215 0 0 1 .859-.362c.25 0 .412-.007.6 0s.462-.039.7.6.815 2.208.888 2.368a.575.575 0 0 1 .006.551 2.154 2.154 0 0 1-.336.512c-.166.178-.348.4-.5.533-.165.15-.337.314-.164.636a9.492 9.492 0 0 0 1.68 2.241 8.655 8.655 0 0 0 2.487 1.654c.311.169.5.151.69-.052s.826-.888 1.049-1.194.432-.247.719-.131 1.814.934 2.125 1.1.519.255.593.389a2.6 2.6 0 0 1-.239 1.488z" data-name="Icon ionic-logo-whatsapp" transform="translate(-2.25 -2.25)"/>
</svg>
